<?xml version="1.0" encoding="UTF-8"?>
<svg width="1953" height="1311" overflow="hidden" version="1.1" xml:space="preserve" xmlns="http://www.w3.org/2000/svg"><defs><clipPath id="clipPath6012"><rect width="1953" height="1311"/></clipPath><clipPath id="clipPath6020"><rect width="1953" height="1311"/></clipPath><clipPath id="clipPath6028"><rect width="1953" height="1311"/></clipPath><clipPath id="clipPath6036"><rect width="1953" height="1311"/></clipPath><clipPath id="clipPath6044"><rect width="1953" height="1311"/></clipPath><clipPath id="clipPath6052"><rect width="1953" height="1311"/></clipPath><clipPath id="clipPath6060"><rect width="1953" height="1311"/></clipPath><clipPath id="clipPath6068"><rect width="1953" height="1311"/></clipPath><clipPath id="clipPath6076"><rect width="1953" height="1311"/></clipPath><clipPath id="clipPath6084"><rect width="1953" height="1311"/></clipPath><clipPath id="clipPath6092"><rect width="1953" height="1311"/></clipPath><clipPath id="clipPath6100"><rect width="1953" height="1311"/></clipPath><clipPath id="clipPath6108"><rect width="1953" height="1311"/></clipPath><clipPath id="clipPath6116"><rect width="1953" height="1311"/></clipPath><clipPath id="clipPath6124"><rect width="1953" height="1311"/></clipPath><clipPath id="clipPath6132"><rect width="1953" height="1311"/></clipPath><clipPath id="clipPath6140"><rect width="1953" height="1311"/></clipPath><clipPath id="clipPath6148"><rect width="1953" height="1311"/></clipPath><clipPath id="clipPath6156"><rect width="1953" height="1311"/></clipPath><clipPath id="clipPath6164"><rect width="1953" height="1311"/></clipPath><clipPath id="clipPath6172"><rect width="1953" height="1311"/></clipPath><clipPath id="clipPath6180"><rect width="1953" height="1311"/></clipPath><clipPath id="clipPath6188"><rect width="1953" height="1311"/></clipPath><clipPath id="clipPath6196"><rect width="1953" height="1311"/></clipPath><clipPath id="clipPath6204"><rect width="1953" height="1311"/></clipPath><clipPath id="clipPath6212"><rect width="1953" height="1311"/></clipPath><clipPath id="clipPath6220"><rect width="1953" height="1311"/></clipPath><clipPath id="clipPath6228"><rect width="1953" height="1311"/></clipPath><clipPath id="clipPath6236"><rect width="1953" height="1311"/></clipPath><clipPath id="clipPath6244"><rect width="1953" height="1311"/></clipPath><clipPath id="clipPath6252"><rect width="1953" height="1311"/></clipPath><clipPath id="clipPath6260"><rect width="1953" height="1311"/></clipPath><clipPath id="clipPath6268"><rect width="1953" height="1311"/></clipPath><clipPath id="clipPath6276"><rect width="1953" height="1311"/></clipPath><clipPath id="clipPath6284"><rect width="1953" height="1311"/></clipPath></defs><path d="m490 100v649.61" clip-path="url(#clipPath6284)" fill="none" fill-rule="evenodd" stroke="#4472c4" stroke-miterlimit="8" stroke-width="2.2917"/><path d="m645 100v649.61" clip-path="url(#clipPath6276)" fill="none" fill-rule="evenodd" stroke="#4472c4" stroke-miterlimit="8" stroke-width="2.2917"/><path d="m645.04 162.95 428.24 50.507-1.08 9.104-428.24-50.507zm-2.15 18.207c-7.54-0.889-12.93-7.724-12.05-15.266 0.89-7.541 7.73-12.934 15.27-12.044 7.54 0.889 12.93 7.724 12.05 15.265-0.89 7.542-7.73 12.935-15.27 12.045zm426.91 22.66 25.7 16.876-28.92 10.435z" clip-path="url(#clipPath6268)" fill="#385723"/><path d="m1095 100v649.61" clip-path="url(#clipPath6260)" fill="none" fill-rule="evenodd" stroke="#4472c4" stroke-miterlimit="8" stroke-width="2.2917"/><path d="m1251 100v649.61" clip-path="url(#clipPath6252)" fill="none" fill-rule="evenodd" stroke="#4472c4" stroke-miterlimit="8" stroke-width="2.2917"/><text x="1140.2" y="71" fill="#000000" font-family="Calibri, Calibri_MSFontService, sans-serif" font-size="46px" font-weight="400" style="text-decoration-line:none">disc</text><g fill="#385723"><path d="m1085.6 225.02-419.65 91.361 1.95 8.9568 419.65-91.361zm-417.12 81.429-23.946 19.285 29.796 7.5857z" clip-path="url(#clipPath6244)"/><path d="m646.99 330.94 430.43 46.691-0.99 9.113-430.42-46.69zm426.86 37.084 25.85 16.635-28.82 10.704z" clip-path="url(#clipPath6236)"/><path d="m1085.6 395.02-419.65 91.361 1.95 8.9568 419.65-91.361zm-417.12 81.429-23.946 19.285 29.796 7.5857z" clip-path="url(#clipPath6228)"/><path d="m646.99 504.94 430.43 46.691-0.99 9.113-430.42-46.69zm426.86 37.084 25.85 16.635-28.82 10.704z" clip-path="url(#clipPath6220)"/><path d="m1079.6 563.02-419.65 91.361 1.95 8.9568 419.65-91.361zm-417.12 81.429-23.946 19.285 29.796 7.5857z" clip-path="url(#clipPath6212)"/><path d="m646.99 677.94 430.43 46.691-0.99 9.113-430.42-46.691zm426.86 37.084 25.85 16.635-28.82 10.704z" clip-path="url(#clipPath6204)"/><path d="m1086.8 735.99-27.036 5.0294 1.6765 9.0121 27.036-5.0294zm-36.048 6.7059-27.036 5.0294 1.6764 9.012 27.036-5.0294zm-36.048 6.7059-27.036 5.0295 1.6765 9.012 27.036-5.0294zm-36.048 6.706-17.429 3.2422 1.677 9.0121 17.429-3.2423zm-14.599-6.6081-24.522 18.547 29.551 8.4887z" clip-path="url(#clipPath6196)"/></g><g fill="#000000" font-family="'Cambria Math', 'Cambria Math_MSFontService', sans-serif" font-weight="400"><text x="661.84003" y="138" font-size="46px" style="text-decoration-line:none">𝜀</text><text x="681.65997" y="147" font-size="34px" style="text-decoration-line:none">𝐿𝑔</text><text x="724.81" y="138" font-size="46px" style="text-decoration-line:none">𝑀</text><text x="759.12" y="147" font-size="34px" style="text-decoration-line:none">𝑔</text><text x="764.89001" y="121" font-size="34px" style="text-decoration-line:none">0</text><text x="652.41998" y="272" font-size="46px" style="text-decoration-line:none">𝜌</text><text x="676.76001" y="281" font-size="34px" style="text-decoration-line:none">𝐿</text><text x="695.09003" y="281" font-size="34px" style="text-decoration-line:none">𝑑</text><text x="719.25" y="272" font-size="46px" style="text-decoration-line:none">𝜀</text><text x="739.07001" y="281" font-size="34px" style="text-decoration-line:none">𝐿𝑔</text><text x="782.21997" y="272" font-size="46px" style="text-decoration-line:none">𝑀</text><text x="816.53003" y="281" font-size="34px" style="text-decoration-line:none">𝑔</text><text x="822.29999" y="255" font-size="34px" style="text-decoration-line:none">0</text><text x="827.03003" y="341" font-size="46px" style="text-decoration-line:none">𝜌</text><text x="851.35999" y="351" font-size="34px" style="text-decoration-line:none">𝑣𝐺</text><text x="895.40997" y="341" font-size="46px" style="text-decoration-line:none">𝜌</text><text x="919.75" y="351" font-size="34px" style="text-decoration-line:none">𝐿</text><text x="938.08002" y="351" font-size="34px" style="text-decoration-line:none">𝑑</text><text x="962.22998" y="341" font-size="46px" style="text-decoration-line:none">𝜀</text><text x="982.06" y="351" font-size="34px" style="text-decoration-line:none">𝐿𝑔</text><text x="1025.21" y="341" font-size="46px" style="text-decoration-line:none">𝑀</text><text x="1059.52" y="351" font-size="34px" style="text-decoration-line:none">𝑔</text><text x="1065.29" y="324" font-size="34px" style="text-decoration-line:none">0</text><text x="650.09998" y="433" font-size="46px" style="text-decoration-line:none">𝜌</text><text x="674.44" y="443" font-size="34px" style="text-decoration-line:none">𝐿𝑔</text><text x="717.59003" y="433" font-size="46px" style="text-decoration-line:none">𝜌</text><g font-size="34px"><text x="741.92999" y="444" style="text-decoration-line:none">𝐿</text><text x="760.26001" y="444" style="text-decoration-line:none">𝑑</text><text x="744.38" y="415" style="text-decoration-line:none">2</text></g><text x="784.41998" y="433" font-size="46px" style="text-decoration-line:none">𝜀</text><text x="804.23999" y="443" font-size="34px" style="text-decoration-line:none">𝐿𝑔</text><text x="847.39001" y="433" font-size="46px" style="text-decoration-line:none">𝑀</text><text x="883.66998" y="443" font-size="34px" style="text-decoration-line:none">𝑣</text><text x="887.46997" y="416" font-size="34px" style="text-decoration-line:none">0</text><text x="831.13" y="513" font-size="46px" style="text-decoration-line:none">𝜌</text><text x="855.46997" y="524" font-size="34px" style="text-decoration-line:none">𝐿𝑔</text><text x="857.91998" y="496" font-size="34px" style="text-decoration-line:none">2</text><text x="898.62" y="513" font-size="46px" style="text-decoration-line:none">𝜌</text><g font-size="34px"><text x="922.96002" y="524" style="text-decoration-line:none">𝐿</text><text x="941.28998" y="524" style="text-decoration-line:none">𝑑</text><text x="925.40997" y="495" style="text-decoration-line:none">2</text></g><text x="965.45001" y="513" font-size="46px" style="text-decoration-line:none">𝜀</text><text x="985.27002" y="523" font-size="34px" style="text-decoration-line:none">𝐿𝑔</text><text x="1028.42" y="513" font-size="46px" style="text-decoration-line:none">𝑀</text><text x="1062.73" y="523" font-size="34px" style="text-decoration-line:none">𝑔</text><text x="1068.51" y="497" font-size="34px" style="text-decoration-line:none">0</text><text x="657.54999" y="594" font-size="46px" style="text-decoration-line:none">𝜌</text><text x="681.89001" y="604" font-size="34px" style="text-decoration-line:none">𝐿𝑔</text><text x="684.34003" y="576" font-size="34px" style="text-decoration-line:none">2</text><text x="725.03998" y="594" font-size="46px" style="text-decoration-line:none">𝜌</text><g font-size="34px"><text x="749.38" y="605" style="text-decoration-line:none">𝐿</text><text x="767.71002" y="605" style="text-decoration-line:none">𝑑</text><text x="751.83002" y="575" style="text-decoration-line:none">3</text></g><text x="791.87" y="594" font-size="46px" style="text-decoration-line:none">𝜀</text><text x="811.69" y="603" font-size="34px" style="text-decoration-line:none">𝐿𝑔</text><text x="854.84003" y="594" font-size="46px" style="text-decoration-line:none">𝑀</text><text x="891.12" y="603" font-size="34px" style="text-decoration-line:none">𝑣</text><text x="894.91998" y="577" font-size="34px" style="text-decoration-line:none">0</text><text x="821.82001" y="685" font-size="46px" style="text-decoration-line:none">𝜌</text><text x="846.15997" y="696" font-size="34px" style="text-decoration-line:none">𝐿𝑔</text><text x="848.60999" y="667" font-size="34px" style="text-decoration-line:none">3</text><text x="889.31" y="685" font-size="46px" style="text-decoration-line:none">𝜌</text><g font-size="34px"><text x="913.65002" y="696" style="text-decoration-line:none">𝐿</text><text x="931.97998" y="696" style="text-decoration-line:none">𝑑</text><text x="916.09998" y="667" style="text-decoration-line:none">3</text></g><text x="956.13" y="685" font-size="46px" style="text-decoration-line:none">𝜀</text><text x="975.96002" y="695" font-size="34px" style="text-decoration-line:none">𝐿𝑔</text><text x="1019.11" y="685" font-size="46px" style="text-decoration-line:none">𝑀</text><text x="1053.42" y="695" font-size="34px" style="text-decoration-line:none">𝑔</text><text x="1059.1899" y="668" font-size="34px" style="text-decoration-line:none">0</text><text x="1204.1" y="970" font-size="46px" style="text-decoration-line:none">𝑄</text></g><path d="m1223.3 935.06c-0.7188 0-1.3178-0.2508-1.7969-0.7524-0.4792-0.5016-0.7188-1.1343-0.7188-1.898 0-0.7636 0.2396-1.3963 0.7188-1.8979 0.4791-0.5016 1.0781-0.7525 1.7969-0.7525 0.7037 0 1.2952 0.2509 1.7744 0.7525 0.4791 0.5016 0.7187 1.1343 0.7187 1.8979 0 0.7637-0.2396 1.3964-0.7187 1.898-0.4792 0.5016-1.0707 0.7524-1.7744 0.7524z" clip-path="url(#clipPath6188)"/><g fill="#000000"><text x="-2111.9844" y="-181.605" fill-opacity="0" font-family="Arial, Arial_MSFontService, sans-serif" font-size="5.3008px">ሶ</text><g font-family="'Cambria Math', 'Cambria Math_MSFontService', sans-serif" font-weight="400"><text x="1235.03" y="982" font-size="34px" style="text-decoration-line:none">𝑑</text><text x="1257.29" y="982" font-size="34px" style="text-decoration-line:none">𝑀</text><text x="1284.72" y="989" font-size="28px" style="text-decoration-line:none">𝑣</text><text x="1287.33" y="970" font-size="28px" style="text-decoration-line:none">0</text><text x="1319.99" y="970" font-size="46px" style="text-decoration-line:none">=</text><text x="1367.1" y="970" font-size="46px" style="text-decoration-line:none">𝛼</text><text x="1394.6" y="979" font-size="34px" style="text-decoration-line:none">𝐿</text><text x="1412.9399" y="979" font-size="34px" style="text-decoration-line:none">𝑑</text><text x="1437.09" y="970" font-size="46px" style="text-decoration-line:none">𝜀</text><text x="1456.91" y="979" font-size="34px" style="text-decoration-line:none">𝐿𝑔</text></g></g><path d="m1805.4 888.96c6.77 6.64 12.05 15.73 15.85 27.29 3.79 11.56 5.69 25.09 5.69 40.59 0 15.62-1.9 29.21-5.69 40.77-3.8 11.56-9.08 20.65-15.85 27.29l-1.44-1.6c6.07-6.78 10.65-15.89 13.75-27.33s4.65-24.47 4.65-39.08c0-14.54-1.55-27.54-4.65-38.98-3.1-11.45-7.68-20.57-13.75-27.35zm-272.54 0 1.44 1.6c-6.07 6.78-10.65 15.9-13.75 27.35-3.1 11.44-4.65 24.44-4.65 38.98 0 14.61 1.55 27.64 4.65 39.08s7.68 20.55 13.75 27.33l-1.44 1.6c-6.77-6.64-12.05-15.73-15.85-27.29-3.79-11.56-5.69-25.15-5.69-40.77 0-15.5 1.9-29.03 5.69-40.59 3.8-11.56 9.08-20.65 15.85-27.29z" clip-path="url(#clipPath6180)" fill-rule="evenodd"/><path d="m1548 915.89 26.796 36.387v2.7178l-28.93 39.262h38.97c1.722 0 3.0397-0.6064 3.9531-1.8193s1.6996-3.9232 2.3584-8.1309h3.3242l-1.1455 16.464h-55.231v-2.2237l31.468-42.653-30.547-40.812v-2.1338h54.243v13.297h-2.9648c-0.3444-3.1895-1.0407-5.7126-2.0889-7.5693-1.0481-1.8568-2.6354-2.7852-4.7617-2.7852z" clip-path="url(#clipPath6172)"/><text x="-2102.416" y="-135.2063" fill="#000000" fill-opacity="0" font-family="Arial, Arial_MSFontService, sans-serif" font-size="87.822px">෍</text><path d="m1761 929.15c4.67 1.22 8.27 4.41 10.8 9.54 2.53 5.14 3.79 11.22 3.79 18.24s-1.26 13.1-3.79 18.24-6.13 8.32-10.8 9.55l-0.57-1.85c3.63-1.36 6.37-4.33 8.24-8.9 1.86-4.58 2.79-10.25 2.79-17.02 0-6.78-0.93-12.46-2.79-17.04-1.87-4.59-4.61-7.56-8.24-8.92zm-142.13 0 0.56 1.84c-3.62 1.36-6.36 4.33-8.23 8.92-1.86 4.58-2.79 10.26-2.79 17.04 0 6.77 0.93 12.44 2.79 17.02 1.87 4.57 4.61 7.54 8.23 8.9l-0.56 1.85c-4.67-1.23-8.27-4.41-10.8-9.55s-3.8-11.22-3.8-18.24 1.27-13.1 3.8-18.24c2.53-5.13 6.13-8.32 10.8-9.54z" clip-path="url(#clipPath6164)" fill-rule="evenodd"/><g fill="#000000" font-family="'Cambria Math', 'Cambria Math_MSFontService', sans-serif" font-weight="400"><text x="1620.79" y="970" font-size="46px" style="text-decoration-line:none">𝜌</text><text x="1645.13" y="979" font-size="34px" style="text-decoration-line:none">𝐿𝑔</text><text x="1688.28" y="970" font-size="46px" style="text-decoration-line:none">𝜌</text><g font-size="34px"><text x="1712.62" y="979" style="text-decoration-line:none">𝑑𝐺</text><text x="1779.53" y="940" style="text-decoration-line:none">𝑘</text><text x="1552.4301" y="902" style="text-decoration-line:none">∞</text><text x="1535.63" y="1028" style="text-decoration-line:none">𝑘</text><text x="1556.67" y="1028" style="text-decoration-line:none">=</text><text x="1580.73" y="1028" style="text-decoration-line:none">0</text></g><text x="1838.04" y="970" font-size="46px" style="text-decoration-line:none">𝑀</text><text x="1872.35" y="979" font-size="34px" style="text-decoration-line:none">𝑔</text><text x="1878.12" y="953" font-size="34px" style="text-decoration-line:none">0</text><text x="1269.35" y="394" font-size="46px" style="text-decoration-line:none">𝛼</text><text x="1296.85" y="403" font-size="34px" style="text-decoration-line:none">𝐿</text><text x="1315.1899" y="403" font-size="34px" style="text-decoration-line:none">𝑑</text><text x="1339.34" y="394" font-size="46px" style="text-decoration-line:none">𝜌</text><text x="1363.6801" y="403" font-size="34px" style="text-decoration-line:none">𝐿𝑔</text><text x="1406.83" y="394" font-size="46px" style="text-decoration-line:none">𝜌</text><text x="1431.17" y="403" font-size="34px" style="text-decoration-line:none">𝐿</text><text x="1449.5" y="403" font-size="34px" style="text-decoration-line:none">𝑑</text><text x="1473.66" y="394" font-size="46px" style="text-decoration-line:none">𝜀</text><text x="1493.48" y="403" font-size="34px" style="text-decoration-line:none">𝐿𝑔</text><text x="1536.63" y="394" font-size="46px" style="text-decoration-line:none">𝑀</text><text x="1570.9399" y="403" font-size="34px" style="text-decoration-line:none">𝑔</text><text x="1576.71" y="377" font-size="34px" style="text-decoration-line:none">0</text><text x="1269.35" y="570" font-size="46px" style="text-decoration-line:none">𝛼</text><text x="1296.85" y="579" font-size="34px" style="text-decoration-line:none">𝐿</text><text x="1315.1899" y="579" font-size="34px" style="text-decoration-line:none">𝑑</text><text x="1339.34" y="570" font-size="46px" style="text-decoration-line:none">𝜌</text><text x="1363.6801" y="580" font-size="34px" style="text-decoration-line:none">𝐿𝑔</text><text x="1366.13" y="552" font-size="34px" style="text-decoration-line:none">2</text><text x="1406.83" y="570" font-size="46px" style="text-decoration-line:none">𝜌</text><g font-size="34px"><text x="1431.17" y="581" style="text-decoration-line:none">𝐿</text><text x="1449.5" y="581" style="text-decoration-line:none">𝑑</text><text x="1433.62" y="552" style="text-decoration-line:none">2</text></g><text x="1473.66" y="570" font-size="46px" style="text-decoration-line:none">𝜀</text><text x="1493.48" y="579" font-size="34px" style="text-decoration-line:none">𝐿𝑔</text><text x="1536.63" y="570" font-size="46px" style="text-decoration-line:none">𝑀</text><text x="1570.9399" y="579" font-size="34px" style="text-decoration-line:none">𝑔</text><text x="1576.71" y="553" font-size="34px" style="text-decoration-line:none">0</text><text x="1268.53" y="731" font-size="46px" style="text-decoration-line:none">𝛼</text><text x="1296.03" y="740" font-size="34px" style="text-decoration-line:none">𝐿</text><text x="1314.37" y="740" font-size="34px" style="text-decoration-line:none">𝑑</text><text x="1338.52" y="731" font-size="46px" style="text-decoration-line:none">𝜌</text><text x="1362.86" y="741" font-size="34px" style="text-decoration-line:none">𝐿𝑔</text><text x="1365.3101" y="713" font-size="34px" style="text-decoration-line:none">3</text><text x="1406.01" y="731" font-size="46px" style="text-decoration-line:none">𝜌</text><g font-size="34px"><text x="1430.35" y="742" style="text-decoration-line:none">𝐿</text><text x="1448.6801" y="742" style="text-decoration-line:none">𝑑</text><text x="1432.8" y="713" style="text-decoration-line:none">3</text></g><text x="1472.84" y="731" font-size="46px" style="text-decoration-line:none">𝜀</text><text x="1492.66" y="740" font-size="34px" style="text-decoration-line:none">𝐿𝑔</text><text x="1535.8101" y="731" font-size="46px" style="text-decoration-line:none">𝑀</text><text x="1570.12" y="740" font-size="34px" style="text-decoration-line:none">𝑔</text><text x="1575.89" y="714" font-size="34px" style="text-decoration-line:none">0</text><text x="208.5" y="365" font-size="46px" style="text-decoration-line:none">𝛼</text><text x="236" y="374" font-size="34px" style="text-decoration-line:none">𝐿𝑔</text><text x="279.14999" y="365" font-size="46px" style="text-decoration-line:none">𝜌</text><text x="303.48999" y="374" font-size="34px" style="text-decoration-line:none">𝐿</text><text x="321.82001" y="374" font-size="34px" style="text-decoration-line:none">𝑑</text><text x="345.98001" y="365" font-size="46px" style="text-decoration-line:none">𝜀</text><text x="365.79999" y="374" font-size="34px" style="text-decoration-line:none">𝐿𝑔</text><text x="408.95001" y="365" font-size="46px" style="text-decoration-line:none">𝑀</text><text x="443.26001" y="374" font-size="34px" style="text-decoration-line:none">𝑔</text><text x="449.03" y="348" font-size="34px" style="text-decoration-line:none">0</text><text x="144.42999" y="526" font-size="46px" style="text-decoration-line:none">𝛼</text><text x="171.92999" y="536" font-size="34px" style="text-decoration-line:none">𝐿𝑔</text><text x="215.08" y="526" font-size="46px" style="text-decoration-line:none">𝜌</text><text x="239.42" y="536" font-size="34px" style="text-decoration-line:none">𝐿𝑔</text><text x="282.57001" y="526" font-size="46px" style="text-decoration-line:none">𝜌</text><g font-size="34px"><text x="306.91" y="537" style="text-decoration-line:none">𝐿</text><text x="325.23999" y="537" style="text-decoration-line:none">𝑑</text><text x="309.35999" y="508" style="text-decoration-line:none">2</text></g><text x="349.39999" y="526" font-size="46px" style="text-decoration-line:none">𝜀</text><text x="369.22" y="536" font-size="34px" style="text-decoration-line:none">𝐿𝑔</text><text x="412.37" y="526" font-size="46px" style="text-decoration-line:none">𝑀</text><text x="446.67999" y="536" font-size="34px" style="text-decoration-line:none">𝑔</text><text x="452.45001" y="510" font-size="34px" style="text-decoration-line:none">0</text><text x="147.08" y="704" font-size="46px" style="text-decoration-line:none">𝛼</text><text x="174.58" y="713" font-size="34px" style="text-decoration-line:none">𝐿𝑔</text><text x="217.74001" y="704" font-size="46px" style="text-decoration-line:none">𝜌</text><text x="242.07001" y="714" font-size="34px" style="text-decoration-line:none">𝐿𝑔</text><text x="244.53" y="686" font-size="34px" style="text-decoration-line:none">2</text><text x="285.23001" y="704" font-size="46px" style="text-decoration-line:none">𝜌</text><g font-size="34px"><text x="309.56" y="715" style="text-decoration-line:none">𝐿</text><text x="327.89999" y="715" style="text-decoration-line:none">𝑑</text><text x="312.01999" y="686" style="text-decoration-line:none">3</text></g><text x="352.04999" y="704" font-size="46px" style="text-decoration-line:none">𝜀</text><text x="371.87" y="713" font-size="34px" style="text-decoration-line:none">𝐿𝑔</text><text x="415.03" y="704" font-size="46px" style="text-decoration-line:none">𝑀</text><text x="449.32999" y="713" font-size="34px" style="text-decoration-line:none">𝑔</text><text x="455.10999" y="687" font-size="34px" style="text-decoration-line:none">0</text></g><path d="m489.86 159.92-89.439 2.8e-4 1e-4 9.1667 89.439-2.9e-4zm5e-5 18.333c7.5939 0 13.75-6.1561 13.75-13.75 0-7.5939-6.1561-13.75-13.75-13.75-7.5939 0-13.75 6.1561-13.75 13.75 0 7.5939 6.1561 13.75 13.75 13.75zm-84.856-27.5-27.5 13.75 27.5 13.75z" clip-path="url(#clipPath6156)" fill="#385723"/><g fill="#000000" font-family="'Cambria Math', 'Cambria Math_MSFontService', sans-serif" font-weight="400"><g font-size="46px"><text x="282.13" y="266" style="text-decoration-line:none">−</text><text x="316.51001" y="266" style="text-decoration-line:none">2</text><text x="341.72" y="266" style="text-decoration-line:none">𝜀</text></g><text x="361.54001" y="275" font-size="34px" style="text-decoration-line:none">𝐿𝑔</text><text x="404.69" y="266" font-size="46px" style="text-decoration-line:none">𝑀</text><text x="439" y="275" font-size="34px" style="text-decoration-line:none">𝑔</text><text x="444.76999" y="249" font-size="34px" style="text-decoration-line:none">0</text></g><g fill="#385723"><path d="m1118.8 394.83 28.27 72.127-8.53 3.346-28.28-72.127zm-17.07 6.691c-2.77-7.07 0.71-15.048 7.78-17.82 7.07-2.771 15.05 0.714 17.82 7.784s-0.71 15.048-7.78 17.819c-7.07 2.772-15.05-0.713-17.82-7.783zm52.2 57.824-2.76 30.621-22.84-20.585z" clip-path="url(#clipPath6148)"/><path d="m1122.8 554.83 28.27 72.128-8.53 3.345-28.28-72.127zm-17.07 6.691c-2.77-7.07 0.71-15.048 7.78-17.82 7.07-2.771 15.05 0.714 17.82 7.784s-0.71 15.048-7.78 17.82c-7.07 2.771-15.05-0.714-17.82-7.784zm52.2 57.824-2.76 30.621-22.84-20.585z" clip-path="url(#clipPath6140)"/><path d="m1128.8 734.83 28.27 72.127-8.53 3.346-28.28-72.127zm-17.07 6.691c-2.77-7.07 0.71-15.048 7.78-17.82 7.07-2.771 15.05 0.714 17.82 7.784s-0.71 15.048-7.78 17.819c-7.07 2.772-15.05-0.713-17.82-7.783zm52.2 57.824-2.76 30.621-22.84-20.585z" clip-path="url(#clipPath6132)"/><path d="m1122.8 220.83 28.27 72.127-8.53 3.346-28.28-72.127zm-17.07 6.691c-2.77-7.07 0.71-15.048 7.78-17.82 7.07-2.771 15.05 0.714 17.82 7.784s-0.71 15.048-7.78 17.82c-7.07 2.771-15.05-0.714-17.82-7.784zm52.2 57.824-2.76 30.621-22.84-20.585z" clip-path="url(#clipPath6124)"/><path d="m616.08 334.65-30.512 69.13 8.3861 3.7015 30.512-69.13zm16.772 7.4029c3.0664-6.9473-0.0797-15.065-7.027-18.131-6.9473-3.0664-15.065 0.0797-18.131 7.027-3.0664 6.9473 0.0797 15.065 7.027 18.131 6.9473 3.0664 15.065-0.0797 18.131-7.027zm-53.82 53.832 1.4748 30.711 23.684-19.606z" clip-path="url(#clipPath6116)"/><path d="m620.08 496.65-30.512 69.13 8.3861 3.7015 30.512-69.13zm16.772 7.4029c3.0664-6.9473-0.0797-15.065-7.027-18.131-6.9473-3.0664-15.065 0.0797-18.131 7.027-3.0664 6.9473 0.0797 15.065 7.027 18.131 6.9473 3.0664 15.065-0.0797 18.131-7.027zm-53.82 53.832 1.4748 30.711 23.684-19.606z" clip-path="url(#clipPath6108)"/><path d="m615.08 668.65-30.512 69.13 8.3861 3.7015 30.512-69.13zm16.772 7.4029c3.0664-6.9473-0.0797-15.065-7.027-18.131-6.9473-3.0664-15.065 0.0797-18.131 7.027-3.0664 6.9473 0.0797 15.065 7.027 18.131 6.9473 3.0664 15.065-0.0797 18.131-7.027zm-53.82 53.832 1.4748 30.711 23.684-19.606z" clip-path="url(#clipPath6100)"/></g><text x="55.110001" y="970" fill="#000000" font-family="'Cambria Math', 'Cambria Math_MSFontService', sans-serif" font-size="46px" font-weight="400" style="text-decoration-line:none">𝑄</text><path d="m74.331 935.06c-0.71875 0-1.3177-0.2508-1.7969-0.7524-0.47917-0.5016-0.71875-1.1343-0.71875-1.898 0-0.7636 0.23958-1.3963 0.71875-1.8979 0.47916-0.5016 1.0781-0.7525 1.7969-0.7525 0.70378 0 1.2952 0.2509 1.7744 0.7525 0.47917 0.5016 0.71875 1.1343 0.71875 1.8979 0 0.7637-0.23958 1.3964-0.71875 1.898-0.47916 0.5016-1.0706 0.7524-1.7744 0.7524z" clip-path="url(#clipPath6092)" fill="#836967"/><g fill="#000000"><text x="-2111.9844" y="-181.605" fill-opacity="0" font-family="Arial, Arial_MSFontService, sans-serif" font-size="5.3008px">ሶ</text><g font-family="'Cambria Math', 'Cambria Math_MSFontService', sans-serif" font-weight="400"><text x="86.050003" y="982" font-size="34px" style="text-decoration-line:none">𝑀</text><text x="113.48" y="989" font-size="28px" style="text-decoration-line:none">𝑣</text><text x="116.09" y="969" font-size="28px" style="text-decoration-line:none">0</text><text x="134.10001" y="982" font-size="34px" style="text-decoration-line:none">𝑔</text><g font-size="46px"><text x="171.66" y="970" style="text-decoration-line:none">=</text><text x="218.78" y="970" style="text-decoration-line:none">−</text><text x="253.16" y="970" style="text-decoration-line:none">2</text><text x="278.35999" y="970" style="text-decoration-line:none">𝜀</text></g><text x="298.19" y="979" font-size="34px" style="text-decoration-line:none">𝐿𝑔</text><text x="341.34" y="970" font-size="46px" style="text-decoration-line:none">𝑀</text><text x="375.64999" y="979" font-size="34px" style="text-decoration-line:none">𝑔</text><text x="381.42001" y="953" font-size="34px" style="text-decoration-line:none">0</text><text x="412.98001" y="970" font-size="46px" style="text-decoration-line:none">+</text><text x="457.53" y="970" font-size="46px" style="text-decoration-line:none">𝛼</text><text x="485.03" y="979" font-size="34px" style="text-decoration-line:none">𝐿𝑔</text><text x="528.17999" y="970" font-size="46px" style="text-decoration-line:none">𝜌</text><text x="552.52002" y="979" font-size="34px" style="text-decoration-line:none">𝐿</text><text x="570.84998" y="979" font-size="34px" style="text-decoration-line:none">𝑑</text><text x="595" y="970" font-size="46px" style="text-decoration-line:none">𝜀</text><text x="614.83002" y="979" font-size="34px" style="text-decoration-line:none">𝐿𝑔</text></g></g><path d="m959.43 888.64c6.77 6.63 12.05 15.73 15.85 27.29s5.69 25.09 5.69 40.59c0 15.62-1.89 29.2-5.69 40.76s-9.08 20.66-15.85 27.29l-1.43-1.59c6.06-6.78 10.64-15.9 13.74-27.34s4.65-24.46 4.65-39.08c0-14.54-1.55-27.53-4.65-38.98s-7.68-20.56-13.74-27.34zm-268.69 0 1.44 1.6c-6.06 6.78-10.65 15.89-13.74 27.34-3.1 11.45-4.65 24.44-4.65 38.98 0 14.62 1.55 27.64 4.65 39.08 3.09 11.44 7.68 20.56 13.74 27.34l-1.44 1.59c-6.76-6.63-12.05-15.73-15.84-27.29-3.8-11.56-5.7-25.14-5.7-40.76 0-15.5 1.9-29.03 5.7-40.59 3.79-11.56 9.08-20.66 15.84-27.29z" clip-path="url(#clipPath6084)" fill="#836967" fill-rule="evenodd"/><path d="m705.94 915.89 26.796 36.387v2.7178l-28.93 39.262h38.97c1.722 0 3.0397-0.6064 3.9531-1.8193s1.6996-3.9232 2.3584-8.1309h3.3242l-1.1455 16.464h-55.231v-2.2237l31.468-42.653-30.547-40.812v-2.1338h54.243v13.297h-2.9648c-0.3444-3.1895-1.0407-5.7126-2.0889-7.5693-1.0481-1.8568-2.6354-2.7852-4.7617-2.7852z" clip-path="url(#clipPath6076)"/><text x="-2102.416" y="-135.2063" fill="#000000" fill-opacity="0" font-family="Arial, Arial_MSFontService, sans-serif" font-size="87.822px">෍</text><path d="m915.04 928.82c4.67 1.23 8.27 4.41 10.8 9.55s3.8 11.21 3.8 18.24c0 7.02-1.27 13.1-3.8 18.24-2.53 5.13-6.13 8.31-10.8 9.54l-0.56-1.84c3.62-1.36 6.37-4.33 8.23-8.91 1.86-4.57 2.8-10.24 2.8-17.01 0-6.78-0.94-12.47-2.8-17.05s-4.61-7.55-8.23-8.92zm-138.27 0 0.56 1.84c-3.63 1.37-6.37 4.34-8.23 8.92-1.87 4.58-2.8 10.27-2.8 17.05 0 6.77 0.93 12.44 2.8 17.01 1.86 4.58 4.6 7.55 8.23 8.91l-0.56 1.84c-4.67-1.23-8.28-4.41-10.81-9.54-2.53-5.14-3.79-11.22-3.79-18.24 0-7.03 1.26-13.1 3.79-18.24s6.14-8.32 10.81-9.55z" clip-path="url(#clipPath6068)" fill="#836967" fill-rule="evenodd"/><g fill="#000000" font-family="'Cambria Math', 'Cambria Math_MSFontService', sans-serif" font-weight="400"><text x="778.70001" y="970" font-size="46px" style="text-decoration-line:none">𝜌</text><text x="803.03998" y="979" font-size="34px" style="text-decoration-line:none">𝐿𝑔</text><text x="846.19" y="970" font-size="46px" style="text-decoration-line:none">𝜌</text><g font-size="34px"><text x="870.53003" y="979" style="text-decoration-line:none">𝐿</text><text x="888.85999" y="979" style="text-decoration-line:none">𝑑</text><text x="933.59998" y="939" style="text-decoration-line:none">𝑘</text><text x="710.34003" y="902" style="text-decoration-line:none">∞</text><text x="693.54999" y="1028" style="text-decoration-line:none">𝑘</text><text x="714.58002" y="1028" style="text-decoration-line:none">=</text><text x="738.65002" y="1028" style="text-decoration-line:none">0</text></g><text x="992.09998" y="970" font-size="46px" style="text-decoration-line:none">𝑀</text><text x="1026.41" y="979" font-size="34px" style="text-decoration-line:none">𝑔</text><text x="1032.1801" y="953" font-size="34px" style="text-decoration-line:none">0</text><text x="47.740002" y="1142" font-size="46px" style="text-decoration-line:none">𝑄</text></g><path d="m66.961 1107.1c-0.71875 0-1.3177-0.2508-1.7969-0.7524-0.47917-0.5016-0.71875-1.1343-0.71875-1.898 0-0.7636 0.23958-1.3963 0.71875-1.8979 0.47916-0.5016 1.0781-0.7525 1.7969-0.7525 0.70378 0 1.2952 0.2509 1.7744 0.7525 0.47917 0.5016 0.71875 1.1343 0.71875 1.8979 0 0.7637-0.23958 1.3964-0.71875 1.898-0.47916 0.5016-1.0706 0.7524-1.7744 0.7524z" clip-path="url(#clipPath6060)" fill="#836967"/><g fill="#000000"><text x="-2111.9844" y="-181.605" fill-opacity="0" font-family="Arial, Arial_MSFontService, sans-serif" font-size="5.3008px">ሶ</text><g font-family="'Cambria Math', 'Cambria Math_MSFontService', sans-serif" font-weight="400"><text x="78.68" y="1154" font-size="34px" style="text-decoration-line:none">𝑀</text><text x="106.11" y="1161" font-size="28px" style="text-decoration-line:none">𝑣</text><text x="108.72" y="1141" font-size="28px" style="text-decoration-line:none">0</text><text x="126.73" y="1154" font-size="34px" style="text-decoration-line:none">𝑔</text><text x="164.3" y="1142" font-size="46px" style="text-decoration-line:none">=</text></g></g><path d="m805.47 1070c6.16 5.27 11.04 13.13 14.66 23.58 3.62 10.46 5.42 22.12 5.42 35 0 12.68-1.8 24.33-5.42 34.94-3.62 10.6-8.5 18.53-14.66 23.77l-1.05-1.66c5.31-5.41 9.41-13.23 12.29-23.47 2.87-10.25 4.31-21.43 4.31-33.56 0-12.41-1.45-23.65-4.34-33.71-2.89-10.07-6.98-17.8-12.26-23.21zm-570.2 0 1.05 1.68c-5.3 5.41-9.39 13.14-12.27 23.21-2.89 10.06-4.33 21.3-4.33 33.71 0 12.13 1.44 23.31 4.31 33.56 2.88 10.24 6.98 18.06 12.29 23.47l-1.05 1.66c-6.16-5.24-11.04-13.17-14.66-23.77-3.62-10.61-5.42-22.26-5.42-34.94 0-12.88 1.8-24.54 5.42-35 3.62-10.45 8.5-18.31 14.66-23.58z" clip-path="url(#clipPath6052)" fill="#836967" fill-rule="evenodd"/><g fill="#000000" font-family="'Cambria Math', 'Cambria Math_MSFontService', sans-serif" font-weight="400"><text x="237.7" y="1142" font-size="46px" style="text-decoration-line:none">𝛼</text><text x="265.20001" y="1151" font-size="34px" style="text-decoration-line:none">𝐿𝑔</text><text x="308.35001" y="1142" font-size="46px" style="text-decoration-line:none">𝜌</text><text x="332.69" y="1151" font-size="34px" style="text-decoration-line:none">𝐿</text><text x="351.01999" y="1151" font-size="34px" style="text-decoration-line:none">𝑑</text><text x="375.17001" y="1142" font-size="46px" style="text-decoration-line:none">𝜀</text><text x="395" y="1151" font-size="34px" style="text-decoration-line:none">𝐿𝑔</text><g font-size="46px"><text x="540.28998" y="1107" style="text-decoration-line:none">1</text><text x="445.78" y="1172" style="text-decoration-line:none">1</text><text x="481.16" y="1172" style="text-decoration-line:none">−</text><text x="525.71002" y="1172" style="text-decoration-line:none">𝜌</text></g><text x="550.04999" y="1182" font-size="34px" style="text-decoration-line:none">𝐿𝑔</text><text x="593.20001" y="1172" font-size="46px" style="text-decoration-line:none">𝜌</text><text x="617.53998" y="1182" font-size="34px" style="text-decoration-line:none">𝐿</text><text x="635.87" y="1182" font-size="34px" style="text-decoration-line:none">𝑑</text></g><path d="m445.32 1126.8h214v3h-214z" clip-path="url(#clipPath6044)" fill="#836967" fill-rule="evenodd"/><g fill="#000000" font-family="'Cambria Math', 'Cambria Math_MSFontService', sans-serif" font-weight="400"><g font-size="46px"><text x="670.20001" y="1142" style="text-decoration-line:none">−</text><text x="714.75" y="1142" style="text-decoration-line:none">2</text><text x="739.96002" y="1142" style="text-decoration-line:none">𝜀</text></g><text x="759.78003" y="1151" font-size="34px" style="text-decoration-line:none">𝐿𝑔</text><text x="836.84998" y="1142" font-size="46px" style="text-decoration-line:none">𝑀</text><text x="871.15997" y="1151" font-size="34px" style="text-decoration-line:none">𝑔</text><text x="876.92999" y="1125" font-size="34px" style="text-decoration-line:none">0</text><text x="1206.66" y="1135" font-size="46px" style="text-decoration-line:none">𝑄</text></g><path d="m1225.9 1100.1c-0.7188 0-1.3178-0.2508-1.7969-0.7524-0.4792-0.5016-0.7188-1.1343-0.7188-1.898 0-0.7636 0.2396-1.3963 0.7188-1.8979 0.4791-0.5016 1.0781-0.7525 1.7969-0.7525 0.7037 0 1.2952 0.2509 1.7744 0.7525 0.4791 0.5016 0.7187 1.1343 0.7187 1.8979 0 0.7637-0.2396 1.3964-0.7187 1.898-0.4792 0.5016-1.0707 0.7524-1.7744 0.7524z" clip-path="url(#clipPath6036)" fill="#836967"/><g fill="#000000"><text x="-2111.9844" y="-181.605" fill-opacity="0" font-family="Arial, Arial_MSFontService, sans-serif" font-size="5.3008px">ሶ</text><g font-family="'Cambria Math', 'Cambria Math_MSFontService', sans-serif" font-weight="400"><text x="1237.59" y="1148" font-size="34px" style="text-decoration-line:none">𝑑</text><text x="1259.85" y="1148" font-size="34px" style="text-decoration-line:none">𝑀</text><text x="1287.28" y="1155" font-size="28px" style="text-decoration-line:none">𝑣</text><text x="1289.89" y="1135" font-size="28px" style="text-decoration-line:none">0</text><text x="1322.55" y="1135" font-size="46px" style="text-decoration-line:none">=</text><text x="1369.66" y="1135" font-size="46px" style="text-decoration-line:none">𝛼</text><text x="1397.16" y="1145" font-size="34px" style="text-decoration-line:none">𝐿</text><text x="1415.5" y="1145" font-size="34px" style="text-decoration-line:none">𝑑</text><text x="1439.65" y="1135" font-size="46px" style="text-decoration-line:none">𝜀</text><text x="1459.47" y="1145" font-size="34px" style="text-decoration-line:none">𝐿𝑔</text><g font-size="46px"><text x="1606.6899" y="1101" style="text-decoration-line:none">1</text><text x="1510.26" y="1166" style="text-decoration-line:none">1</text><text x="1545.64" y="1166" style="text-decoration-line:none">−</text><text x="1590.1899" y="1166" style="text-decoration-line:none">𝜌</text></g><text x="1614.53" y="1175" font-size="34px" style="text-decoration-line:none">𝐿𝑔</text><text x="1657.6801" y="1166" font-size="46px" style="text-decoration-line:none">𝜌</text><text x="1682.02" y="1175" font-size="34px" style="text-decoration-line:none">𝑑𝐺</text></g></g><path d="m1510.2 1120.4h218v3h-218z" clip-path="url(#clipPath6028)" fill="#836967" fill-rule="evenodd"/><g fill="#000000" font-family="'Cambria Math', 'Cambria Math_MSFontService', sans-serif" font-weight="400"><text x="1735.99" y="1135" font-size="46px" style="text-decoration-line:none">𝑀</text><text x="1770.29" y="1145" font-size="34px" style="text-decoration-line:none">𝑔</text><text x="1776.0699" y="1119" font-size="34px" style="text-decoration-line:none">0</text><text x="1263.39" y="241" font-size="46px" style="text-decoration-line:none">𝛼</text><text x="1290.89" y="251" font-size="34px" style="text-decoration-line:none">𝐿</text><text x="1309.22" y="251" font-size="34px" style="text-decoration-line:none">𝑑</text><text x="1333.37" y="241" font-size="46px" style="text-decoration-line:none">𝜀</text><text x="1353.2" y="251" font-size="34px" style="text-decoration-line:none">𝐿𝑔</text><text x="1396.35" y="241" font-size="46px" style="text-decoration-line:none">𝑀</text><text x="1430.66" y="251" font-size="34px" style="text-decoration-line:none">𝑔</text><text x="1436.4301" y="225" font-size="34px" style="text-decoration-line:none">0</text></g><rect x="492" y="100" width="149" height="649" clip-path="url(#clipPath6020)" fill="#4472c4" fill-opacity=".2"/><rect x="1102" y="106" width="145" height="650" clip-path="url(#clipPath6012)" fill="#afabab" fill-opacity=".2"/><text x="523.53998" y="63" fill="#000000" font-family="Calibri, Calibri_MSFontService, sans-serif" font-size="46px" font-weight="400" style="text-decoration-line:none">glass</text></svg>
