<?xml version="1.0" encoding="UTF-8"?>
<svg width="1930" height="1270" overflow="hidden" version="1.1" xml:space="preserve" xmlns="http://www.w3.org/2000/svg"><defs><clipPath id="clipPath8733"><rect width="1930" height="1270"/></clipPath><clipPath id="clipPath8741"><rect width="1930" height="1270"/></clipPath><clipPath id="clipPath8749"><rect width="1930" height="1270"/></clipPath><clipPath id="clipPath8757"><rect width="1930" height="1270"/></clipPath><clipPath id="clipPath8765"><rect width="1930" height="1270"/></clipPath><clipPath id="clipPath8773"><rect width="1930" height="1270"/></clipPath><clipPath id="clipPath8781"><rect width="1930" height="1270"/></clipPath><clipPath id="clipPath8789"><rect width="1930" height="1270"/></clipPath><clipPath id="clipPath8797"><rect width="1930" height="1270"/></clipPath><clipPath id="clipPath8805"><rect width="1930" height="1270"/></clipPath><clipPath id="clipPath8813"><rect width="1930" height="1270"/></clipPath><clipPath id="clipPath8821"><rect width="1930" height="1270"/></clipPath><clipPath id="clipPath8829"><rect width="1930" height="1270"/></clipPath><clipPath id="clipPath8837"><rect width="1930" height="1270"/></clipPath><clipPath id="clipPath8845"><rect width="1930" height="1270"/></clipPath><clipPath id="clipPath8853"><rect width="1930" height="1270"/></clipPath><clipPath id="clipPath8861"><rect width="1930" height="1270"/></clipPath><clipPath id="clipPath8869"><rect width="1930" height="1270"/></clipPath><clipPath id="clipPath8877"><rect width="1930" height="1270"/></clipPath><clipPath id="clipPath8885"><rect width="1930" height="1270"/></clipPath><clipPath id="clipPath8893"><rect width="1930" height="1270"/></clipPath><clipPath id="clipPath8901"><rect width="1930" height="1270"/></clipPath><clipPath id="clipPath8909"><rect width="1930" height="1270"/></clipPath><clipPath id="clipPath8917"><rect width="1930" height="1270"/></clipPath><clipPath id="clipPath8925"><rect width="1930" height="1270"/></clipPath><clipPath id="clipPath8933"><rect width="1930" height="1270"/></clipPath><clipPath id="clipPath8941"><rect width="1930" height="1270"/></clipPath><clipPath id="clipPath8949"><rect width="1930" height="1270"/></clipPath><clipPath id="clipPath8957"><rect width="1930" height="1270"/></clipPath><clipPath id="clipPath8965"><rect width="1930" height="1270"/></clipPath><clipPath id="clipPath8973"><rect width="1930" height="1270"/></clipPath><clipPath id="clipPath8981"><rect width="1930" height="1270"/></clipPath><clipPath id="clipPath8989"><rect width="1930" height="1270"/></clipPath><clipPath id="clipPath8997"><rect width="1930" height="1270"/></clipPath><clipPath id="clipPath8725-4"><rect width="1930" height="1270"/></clipPath></defs><rect x="435" y="107" width="149" height="649" clip-path="url(#clipPath8997)" fill="#4472c4" fill-opacity=".2"/><text x="1186.45" y="928" fill="#000000" font-family="'Cambria Math', 'Cambria Math_MSFontService', sans-serif" font-size="46px" font-weight="400" style="text-decoration-line:none">𝑄</text><path d="m1205.7 893.06c-0.7188 0-1.3178-0.2508-1.7969-0.7524-0.4792-0.5016-0.7188-1.1343-0.7188-1.898 0-0.7636 0.2396-1.3963 0.7188-1.8979 0.4791-0.5016 1.0781-0.7525 1.7969-0.7525 0.7037 0 1.2952 0.2509 1.7744 0.7525 0.4791 0.5016 0.7187 1.1343 0.7187 1.8979 0 0.7637-0.2396 1.3964-0.7187 1.898-0.4792 0.5016-1.0707 0.7524-1.7744 0.7524z" clip-path="url(#clipPath8989)"/><g><text x="-2363.9844" y="-158.605" fill-opacity="0" font-family="Arial, Arial_MSFontService, sans-serif" font-size="5.3008px">ሶ</text><g font-family="'Cambria Math', 'Cambria Math_MSFontService', sans-serif" font-weight="400"><text x="1217.39" y="941" font-size="34px" style="text-decoration-line:none">𝑀</text><text x="1244.8199" y="948" font-size="28px" style="text-decoration-line:none">𝑎</text><text x="1247.4301" y="928" font-size="28px" style="text-decoration-line:none">0</text><text x="1265.4399" y="941" font-size="34px" style="text-decoration-line:none">𝑑</text><text x="1302.34" y="928" font-size="46px" style="text-decoration-line:none">=</text></g></g><path d="m1785.2 847.32c6.77 6.634 12.05 15.73 15.84 27.293 3.8 11.56 5.7 25.09 5.7 40.58 0 15.62-1.9 29.21-5.7 40.77-3.79 11.56-9.07 20.66-15.84 27.29l-1.44-1.59c6.06-6.79 10.65-15.9 13.75-27.34s4.65-24.47 4.65-39.08c0-14.54-1.55-27.53-4.65-38.98s-7.69-20.565-13.75-27.348zm-410.66 0 1.44 1.595c-6.07 6.783-10.65 15.898-13.75 27.348s-4.65 24.44-4.65 38.98c0 14.61 1.55 27.64 4.65 39.08s7.68 20.55 13.75 27.34l-1.44 1.59c-6.77-6.63-12.05-15.73-15.85-27.29-3.79-11.56-5.69-25.15-5.69-40.77 0-15.49 1.9-29.02 5.69-40.58 3.8-11.563 9.08-20.659 15.85-27.293z" clip-path="url(#clipPath8981)" fill-rule="evenodd"/><g font-family="'Cambria Math', 'Cambria Math_MSFontService', sans-serif" font-weight="400"><text x="1377.39" y="928" font-size="46px" style="text-decoration-line:none">𝛼</text><text x="1404.89" y="938" font-size="34px" style="text-decoration-line:none">𝐿𝑑</text><text x="1447.38" y="928" font-size="46px" style="text-decoration-line:none">𝜏</text><text x="1468.58" y="938" font-size="34px" style="text-decoration-line:none">𝐿𝑔</text></g><path d="m1531.7 873.89 26.796 36.387v2.7178l-28.93 39.262h38.97c1.722 0 3.0397-0.6064 3.9531-1.8193s1.6996-3.9232 2.3584-8.1309h3.3242l-1.1455 16.464h-55.231v-2.2237l31.468-42.653-30.547-40.812v-2.1338h54.243v13.297h-2.9648c-0.3444-3.1895-1.0407-5.7126-2.0889-7.5693-1.0481-1.8568-2.6354-2.7852-4.7617-2.7852z" clip-path="url(#clipPath8973)"/><text x="-2354.416" y="-112.2063" fill="#000000" fill-opacity="0" font-family="Arial, Arial_MSFontService, sans-serif" font-size="87.822px">෍</text><path d="m1740.8 887.5c4.67 1.23 8.28 4.41 10.81 9.55 2.53 5.13 3.79 11.21 3.79 18.23 0 7.03-1.26 13.11-3.79 18.24-2.53 5.14-6.14 8.32-10.81 9.55l-0.56-1.84c3.63-1.37 6.37-4.33 8.23-8.91 1.87-4.57 2.8-10.25 2.8-17.01 0-6.79-0.93-12.47-2.8-17.05-1.86-4.58-4.6-7.56-8.23-8.92zm-138.27 0 0.56 1.84c-3.62 1.36-6.37 4.34-8.23 8.92s-2.8 10.26-2.8 17.05c0 6.76 0.94 12.44 2.8 17.01 1.86 4.58 4.61 7.54 8.23 8.91l-0.56 1.84c-4.67-1.23-8.27-4.41-10.8-9.55-2.53-5.13-3.8-11.21-3.8-18.24 0-7.02 1.27-13.1 3.8-18.23 2.53-5.14 6.13-8.32 10.8-9.55z" clip-path="url(#clipPath8965)" fill-rule="evenodd"/><g font-family="'Cambria Math', 'Cambria Math_MSFontService', sans-serif" font-weight="400"><text x="1604.52" y="928" font-size="46px" style="text-decoration-line:none">𝜌</text><text x="1628.85" y="938" font-size="34px" style="text-decoration-line:none">𝐿𝑔</text><text x="1672.01" y="928" font-size="46px" style="text-decoration-line:none">𝜌</text><g font-size="34px"><text x="1696.34" y="938" style="text-decoration-line:none">𝐿</text><text x="1714.6801" y="938" style="text-decoration-line:none">𝑑</text><text x="1759.41" y="898" style="text-decoration-line:none">𝑘</text><text x="1536.16" y="860" style="text-decoration-line:none">∞</text><text x="1519.36" y="987" style="text-decoration-line:none">𝑘</text><text x="1540.4" y="987" style="text-decoration-line:none">=</text><text x="1564.46" y="987" style="text-decoration-line:none">0</text></g><text x="1817.92" y="928" font-size="46px" style="text-decoration-line:none">𝑀</text><text x="1854.1899" y="938" font-size="34px" style="text-decoration-line:none">𝑎</text><text x="1858" y="912" font-size="34px" style="text-decoration-line:none">0</text></g><path d="m431 95v649.61" clip-path="url(#clipPath8957)" fill="none" fill-rule="evenodd" stroke="#4472c4" stroke-miterlimit="8" stroke-width="2.2917"/><path d="m587 95v649.61" clip-path="url(#clipPath8949)" fill="none" fill-rule="evenodd" stroke="#4472c4" stroke-miterlimit="8" stroke-width="2.2917"/><path d="m159.89 134.93 854.74 73.674-0.79 9.133-854.73-73.675zm850.96 64.148 26.22 16.061-28.58 11.337z" clip-path="url(#clipPath8941)"/><g font-family="'Cambria Math', 'Cambria Math_MSFontService', sans-serif" font-weight="400"><text x="165" y="113" font-size="46px" style="text-decoration-line:none">𝑀</text><text x="201.28" y="122" font-size="34px" style="text-decoration-line:none">𝑎</text><text x="205.08" y="96" font-size="34px" style="text-decoration-line:none">0</text></g><path d="m1037 95v649.61" clip-path="url(#clipPath8933)" fill="none" fill-rule="evenodd" stroke="#4472c4" stroke-miterlimit="8" stroke-width="2.2917"/><path d="m1192 95v649.61" clip-path="url(#clipPath8925)" fill="none" fill-rule="evenodd" stroke="#4472c4" stroke-miterlimit="8" stroke-width="2.2917"/><g font-family="'Cambria Math', 'Cambria Math_MSFontService', sans-serif" font-weight="400"><text x="899.38" y="174" font-size="46px" style="text-decoration-line:none">𝜏</text><text x="920.58002" y="183" font-size="34px" style="text-decoration-line:none">𝐿𝑔</text><text x="963.72998" y="174" font-size="46px" style="text-decoration-line:none">𝑀</text><text x="1000.01" y="183" font-size="34px" style="text-decoration-line:none">𝑎</text><text x="1003.81" y="157" font-size="34px" style="text-decoration-line:none">0</text></g><path d="m450.3 165.94 50.18 74.459-7.6 5.122-50.18-74.459zm-15.2 10.245c-4.25-6.298-2.58-14.843 3.72-19.087 6.29-4.243 14.84-2.579 19.08 3.719 4.25 6.297 2.58 14.843-3.72 19.086-6.29 4.244-14.84 2.579-19.08-3.718zm70.42 55.29 3.96 30.489-26.77-15.121z" clip-path="url(#clipPath8917)" fill="#1a1a1a"/><g font-family="'Cambria Math', 'Cambria Math_MSFontService', sans-serif" font-weight="400"><text x="291.57001" y="229" font-size="46px" style="text-decoration-line:none">𝛼</text><text x="319.07001" y="239" font-size="34px" style="text-decoration-line:none">𝐿𝑔</text><text x="362.22" y="229" font-size="46px" style="text-decoration-line:none">𝑀</text><text x="398.48999" y="239" font-size="34px" style="text-decoration-line:none">𝑎</text><text x="402.29999" y="213" font-size="34px" style="text-decoration-line:none">0</text></g><path d="m1045.2 221.83 53.79 74.852-7.45 5.349-53.78-74.853zm-14.89 10.697c-4.43-6.167-3.02-14.758 3.15-19.189 6.16-4.432 14.76-3.024 19.19 3.143s3.02 14.758-3.15 19.189c-6.16 4.432-14.76 3.024-19.19-3.143zm73.45 55.084 4.88 30.356-27.22-14.309z" clip-path="url(#clipPath8909)" fill="#1a1a1a"/><g font-weight="400"><g font-family="'Cambria Math', 'Cambria Math_MSFontService', sans-serif"><text x="1200.86" y="317" font-size="46px" style="text-decoration-line:none">𝛼</text><text x="1228.36" y="326" font-size="34px" style="text-decoration-line:none">𝐿𝑑</text><text x="1270.85" y="317" font-size="46px" style="text-decoration-line:none">𝜏</text><text x="1292.05" y="326" font-size="34px" style="text-decoration-line:none">𝐿𝑔</text><text x="1335.2" y="317" font-size="46px" style="text-decoration-line:none">𝑀</text><text x="1371.48" y="326" font-size="34px" style="text-decoration-line:none">𝑎</text><text x="1375.28" y="300" font-size="34px" style="text-decoration-line:none">0</text></g><text x="486.31" y="63" font-family="Calibri, Calibri_MSFontService, sans-serif" font-size="46px" style="text-decoration-line:none">glass</text><text x="1081.55" y="66" font-family="Calibri, Calibri_MSFontService, sans-serif" font-size="46px" style="text-decoration-line:none">disc</text></g><path d="m1027.6 220.02-419.65 91.361 1.95 8.9568 419.65-91.361zm-417.12 81.429-23.946 19.285 29.796 7.5857z" clip-path="url(#clipPath8901)" fill="#1a1a1a"/><g font-family="'Cambria Math', 'Cambria Math_MSFontService', sans-serif" font-weight="400"><text x="593.83002" y="259" font-size="46px" style="text-decoration-line:none">𝜌</text><text x="618.16998" y="269" font-size="34px" style="text-decoration-line:none">𝐿</text><text x="636.5" y="269" font-size="34px" style="text-decoration-line:none">𝑑</text><text x="660.65997" y="259" font-size="46px" style="text-decoration-line:none">𝜏</text><text x="681.85999" y="269" font-size="34px" style="text-decoration-line:none">𝐿𝑔</text><text x="725.01001" y="259" font-size="46px" style="text-decoration-line:none">𝑀</text><text x="761.28998" y="269" font-size="34px" style="text-decoration-line:none">𝑎</text><text x="765.09003" y="243" font-size="34px" style="text-decoration-line:none">0</text></g><path d="m575.87 326.69-55.933 71.998 7.2389 5.6236 55.933-71.998zm14.478 11.247c4.6588-5.9969 3.574-14.635-2.4229-19.294-5.9969-4.6588-14.635-3.574-19.294 2.4229-4.6588 5.9969-3.574 14.635 2.4229 19.294 5.9969 4.6588 14.635 3.574 19.294-2.4229zm-74.838 51.507-6.0126 30.152 27.729-13.281z" clip-path="url(#clipPath8893)" fill="#1a1a1a"/><g font-family="'Cambria Math', 'Cambria Math_MSFontService', sans-serif" font-weight="400"><text x="159.53999" y="430" font-size="46px" style="text-decoration-line:none">𝛼</text><text x="187.03999" y="439" font-size="34px" style="text-decoration-line:none">𝐿𝑔</text><text x="230.19" y="430" font-size="46px" style="text-decoration-line:none">𝜌</text><text x="254.53" y="439" font-size="34px" style="text-decoration-line:none">𝐿𝑑</text><text x="297.01001" y="430" font-size="46px" style="text-decoration-line:none">𝜏</text><text x="318.20999" y="439" font-size="34px" style="text-decoration-line:none">𝐿𝑔</text><text x="361.35999" y="430" font-size="46px" style="text-decoration-line:none">𝑀</text><text x="397.64001" y="439" font-size="34px" style="text-decoration-line:none">𝑎</text><text x="401.45001" y="413" font-size="34px" style="text-decoration-line:none">0</text></g><path d="m587.99 324.94 430.43 46.69-0.99 9.114-430.42-46.691zm426.86 37.083 25.85 16.635-28.82 10.704z" clip-path="url(#clipPath8885)" fill="#1a1a1a"/><path d="m1027.6 390.02-419.65 91.361 1.95 8.9568 419.65-91.361zm-417.12 81.429-23.946 19.285 29.796 7.5857z" clip-path="url(#clipPath8877)" fill="#1a1a1a"/><g font-family="'Cambria Math', 'Cambria Math_MSFontService', sans-serif" font-weight="400"><text x="596.29999" y="416" font-size="46px" style="text-decoration-line:none">𝜌</text><text x="620.64001" y="425" font-size="34px" style="text-decoration-line:none">𝐿𝑔</text><text x="663.78998" y="416" font-size="46px" style="text-decoration-line:none">𝜌</text><g font-size="34px"><text x="688.13" y="427" style="text-decoration-line:none">𝐿</text><text x="706.46002" y="427" style="text-decoration-line:none">𝑑</text><text x="690.58002" y="398" style="text-decoration-line:none">2</text></g><text x="730.62" y="416" font-size="46px" style="text-decoration-line:none">𝜏</text><text x="751.82001" y="425" font-size="34px" style="text-decoration-line:none">𝐿𝑔</text><text x="794.96997" y="416" font-size="46px" style="text-decoration-line:none">𝑀</text><text x="831.25" y="425" font-size="34px" style="text-decoration-line:none">𝑎</text><text x="835.04999" y="399" font-size="34px" style="text-decoration-line:none">0</text></g><path d="m575.91 487.64-55.677 69.604 7.1583 5.726 55.677-69.604zm14.317 11.452c4.7436-5.9301 3.7817-14.583-2.1484-19.326-5.9301-4.7436-14.583-3.7817-19.326 2.1484-4.7436 5.9301-3.7817 14.583 2.1484 19.326 5.9301 4.7436 14.583 3.7817 19.326-2.1484zm-74.289 48.847-6.4405 30.064 27.915-12.886z" clip-path="url(#clipPath8869)" fill="#1a1a1a"/><g font-family="'Cambria Math', 'Cambria Math_MSFontService', sans-serif" font-weight="400"><text x="94.029999" y="582" font-size="46px" style="text-decoration-line:none">𝛼</text><text x="121.53" y="592" font-size="34px" style="text-decoration-line:none">𝐿𝑔</text><text x="164.69" y="582" font-size="46px" style="text-decoration-line:none">𝜌</text><text x="189.02" y="592" font-size="34px" style="text-decoration-line:none">𝐿𝑔</text><text x="232.17" y="582" font-size="46px" style="text-decoration-line:none">𝜌</text><g font-size="34px"><text x="256.51001" y="593" style="text-decoration-line:none">𝐿</text><text x="274.85001" y="593" style="text-decoration-line:none">𝑑</text><text x="258.95999" y="564" style="text-decoration-line:none">2</text></g><text x="299" y="582" font-size="46px" style="text-decoration-line:none">𝜏</text><text x="320.20001" y="592" font-size="34px" style="text-decoration-line:none">𝐿𝑔</text><text x="363.35001" y="582" font-size="46px" style="text-decoration-line:none">𝑀</text><text x="399.63" y="592" font-size="34px" style="text-decoration-line:none">𝑎</text><text x="403.42999" y="566" font-size="34px" style="text-decoration-line:none">0</text></g><path d="m588.99 499.94 430.43 46.69-0.99 9.114-430.42-46.691zm426.86 37.083 25.85 16.635-28.82 10.704z" clip-path="url(#clipPath8861)" fill="#1a1a1a"/><path d="m1045.2 382.79 53.6 73.066-7.39 5.422-53.61-73.066zm-14.79 10.844c-4.49-6.123-3.17-14.728 2.96-19.22 6.12-4.492 14.72-3.169 19.22 2.954 4.49 6.123 3.17 14.728-2.96 19.219-6.12 4.492-14.72 3.17-19.22-2.953zm73.07 53.104 5.18 30.307-27.36-14.04z" clip-path="url(#clipPath8853)" fill="#1a1a1a"/><g font-family="'Cambria Math', 'Cambria Math_MSFontService', sans-serif" font-weight="400"><text x="1201.6" y="462" font-size="46px" style="text-decoration-line:none">𝛼</text><text x="1229.1" y="471" font-size="34px" style="text-decoration-line:none">𝐿𝑑</text><text x="1271.59" y="462" font-size="46px" style="text-decoration-line:none">𝜌</text><text x="1295.92" y="471" font-size="34px" style="text-decoration-line:none">𝐿𝑔</text><text x="1339.08" y="462" font-size="46px" style="text-decoration-line:none">𝜌</text><text x="1363.41" y="471" font-size="34px" style="text-decoration-line:none">𝐿</text><text x="1381.75" y="471" font-size="34px" style="text-decoration-line:none">𝑑</text><text x="1405.9" y="462" font-size="46px" style="text-decoration-line:none">𝜏</text><text x="1427.1" y="471" font-size="34px" style="text-decoration-line:none">𝐿𝑔</text><text x="1470.25" y="462" font-size="46px" style="text-decoration-line:none">𝑀</text><text x="1506.53" y="471" font-size="34px" style="text-decoration-line:none">𝑎</text><text x="1510.33" y="445" font-size="34px" style="text-decoration-line:none">0</text><text x="775.03998" y="492" font-size="46px" style="text-decoration-line:none">𝜌</text><text x="799.38" y="502" font-size="34px" style="text-decoration-line:none">𝐿𝑔</text><text x="801.83002" y="475" font-size="34px" style="text-decoration-line:none">2</text><text x="842.53003" y="492" font-size="46px" style="text-decoration-line:none">𝜌</text><g font-size="34px"><text x="866.87" y="503" style="text-decoration-line:none">𝐿</text><text x="885.20001" y="503" style="text-decoration-line:none">𝑑</text><text x="869.32001" y="474" style="text-decoration-line:none">2</text></g><text x="909.35999" y="492" font-size="46px" style="text-decoration-line:none">𝜏</text><text x="930.54999" y="502" font-size="34px" style="text-decoration-line:none">𝐿𝑔</text><text x="973.71002" y="492" font-size="46px" style="text-decoration-line:none">𝑀</text><text x="1009.98" y="502" font-size="34px" style="text-decoration-line:none">𝑎</text><text x="1013.79" y="475" font-size="34px" style="text-decoration-line:none">0</text></g><path d="m1045.1 559.65 52.91 66.66-7.18 5.699-52.91-66.66zm-14.36 11.398c-4.72-5.948-3.73-14.597 2.22-19.318s14.6-3.726 19.32 2.222 3.73 14.597-2.22 19.318-14.6 3.726-19.32-2.222zm71.6 45.974 6.33 30.088-27.87-12.992z" clip-path="url(#clipPath8845)" fill="#1a1a1a"/><g font-family="'Cambria Math', 'Cambria Math_MSFontService', sans-serif" font-weight="400"><text x="1201.6" y="621" font-size="46px" style="text-decoration-line:none">𝛼</text><text x="1229.1" y="630" font-size="34px" style="text-decoration-line:none">𝐿𝑑</text><text x="1271.59" y="621" font-size="46px" style="text-decoration-line:none">𝜌</text><text x="1295.92" y="631" font-size="34px" style="text-decoration-line:none">𝐿𝑔</text><text x="1298.38" y="603" font-size="34px" style="text-decoration-line:none">2</text><text x="1339.08" y="621" font-size="46px" style="text-decoration-line:none">𝜌</text><g font-size="34px"><text x="1363.41" y="632" style="text-decoration-line:none">𝐿</text><text x="1381.75" y="632" style="text-decoration-line:none">𝑑</text><text x="1365.86" y="603" style="text-decoration-line:none">2</text></g><text x="1405.9" y="621" font-size="46px" style="text-decoration-line:none">𝜏</text><text x="1427.1" y="630" font-size="34px" style="text-decoration-line:none">𝐿𝑔</text><text x="1470.25" y="621" font-size="46px" style="text-decoration-line:none">𝑀</text><text x="1506.53" y="630" font-size="34px" style="text-decoration-line:none">𝑎</text><text x="1510.33" y="604" font-size="34px" style="text-decoration-line:none">0</text></g><path d="m1020.6 558.02-419.65 91.361 1.95 8.9568 419.65-91.361zm-417.12 81.429-23.946 19.285 29.796 7.5857z" clip-path="url(#clipPath8837)" fill="#1a1a1a"/><g font-family="'Cambria Math', 'Cambria Math_MSFontService', sans-serif" font-weight="400"><text x="593.84998" y="585" font-size="46px" style="text-decoration-line:none">𝜌</text><text x="618.19" y="596" font-size="34px" style="text-decoration-line:none">𝐿𝑔</text><text x="620.64001" y="568" font-size="34px" style="text-decoration-line:none">2</text><text x="661.34003" y="585" font-size="46px" style="text-decoration-line:none">𝜌</text><g font-size="34px"><text x="685.67999" y="596" style="text-decoration-line:none">𝐿</text><text x="704.01001" y="596" style="text-decoration-line:none">𝑑</text><text x="688.13" y="567" style="text-decoration-line:none">3</text></g><text x="728.15997" y="585" font-size="46px" style="text-decoration-line:none">𝜏</text><text x="749.35999" y="595" font-size="34px" style="text-decoration-line:none">𝐿𝑔</text><text x="792.51001" y="585" font-size="46px" style="text-decoration-line:none">𝑀</text><text x="828.78998" y="595" font-size="34px" style="text-decoration-line:none">𝑎</text><text x="832.59003" y="569" font-size="34px" style="text-decoration-line:none">0</text></g><path d="m587.99 671.94 430.43 46.691-0.99 9.113-430.42-46.69zm426.86 37.084 25.85 16.635-28.82 10.704z" clip-path="url(#clipPath8829)" fill="#1a1a1a"/><g font-family="'Cambria Math', 'Cambria Math_MSFontService', sans-serif" font-weight="400"><text x="772.21997" y="668" font-size="46px" style="text-decoration-line:none">𝜌</text><text x="796.56" y="679" font-size="34px" style="text-decoration-line:none">𝐿𝑔</text><text x="799.01001" y="650" font-size="34px" style="text-decoration-line:none">3</text><text x="839.71002" y="668" font-size="46px" style="text-decoration-line:none">𝜌</text><g font-size="34px"><text x="864.04999" y="679" style="text-decoration-line:none">𝐿</text><text x="882.38" y="679" style="text-decoration-line:none">𝑑</text><text x="866.5" y="650" style="text-decoration-line:none">3</text></g><text x="906.53998" y="668" font-size="46px" style="text-decoration-line:none">𝜏</text><text x="927.72998" y="678" font-size="34px" style="text-decoration-line:none">𝐿𝑔</text><text x="970.89001" y="668" font-size="46px" style="text-decoration-line:none">𝑀</text><text x="1007.16" y="678" font-size="34px" style="text-decoration-line:none">𝑎</text><text x="1010.97" y="651" font-size="34px" style="text-decoration-line:none">0</text></g><g fill="#1a1a1a"><path d="m1027.8 729.99-27.036 5.0294 1.6765 9.0121 27.036-5.0294zm-36.048 6.7059-27.036 5.0294 1.6764 9.012 27.036-5.0294zm-36.048 6.7059-27.036 5.0295 1.6765 9.012 27.036-5.0294zm-36.048 6.706-17.429 3.2422 1.677 9.0121 17.429-3.2423zm-14.599-6.6081-24.522 18.547 29.551 8.4887z" clip-path="url(#clipPath8821)"/><path d="m575.82 655.75-56.255 75.12 7.3373 5.4947 56.255-75.12zm14.675 10.989c4.5519-6.0784 3.3145-14.696-2.764-19.248-6.0784-4.5519-14.696-3.3145-19.248 2.764-4.5519 6.0784-3.3145 14.696 2.764 19.248 6.0784 4.5519 14.696 3.3145 19.248-2.764zm-75.52 54.967-5.4781 30.254 27.49-13.77z" clip-path="url(#clipPath8813)"/><path d="m1045.2 723.82 53.79 74.853-7.45 5.349-53.78-74.853zm-14.89 10.698c-4.43-6.167-3.02-14.758 3.15-19.19 6.16-4.431 14.76-3.024 19.19 3.143s3.02 14.759-3.15 19.19c-6.16 4.431-14.76 3.024-19.19-3.143zm73.45 55.084 4.88 30.356-27.22-14.309z" clip-path="url(#clipPath8805)"/></g><g font-family="'Cambria Math', 'Cambria Math_MSFontService', sans-serif" font-weight="400"><text x="97.419998" y="749" font-size="46px" style="text-decoration-line:none">𝛼</text><text x="124.92" y="758" font-size="34px" style="text-decoration-line:none">𝐿𝑔</text><text x="168.07001" y="749" font-size="46px" style="text-decoration-line:none">𝜌</text><text x="192.41" y="759" font-size="34px" style="text-decoration-line:none">𝐿𝑔</text><text x="194.86" y="731" font-size="34px" style="text-decoration-line:none">2</text><text x="235.56" y="749" font-size="46px" style="text-decoration-line:none">𝜌</text><g font-size="34px"><text x="259.89999" y="760" style="text-decoration-line:none">𝐿</text><text x="278.23001" y="760" style="text-decoration-line:none">𝑑</text><text x="262.35001" y="730" style="text-decoration-line:none">3</text></g><text x="302.39001" y="749" font-size="46px" style="text-decoration-line:none">𝜏</text><text x="323.59" y="758" font-size="34px" style="text-decoration-line:none">𝐿𝑔</text><text x="366.73999" y="749" font-size="46px" style="text-decoration-line:none">𝑀</text><text x="403.01999" y="758" font-size="34px" style="text-decoration-line:none">𝑎</text><text x="406.82001" y="732" font-size="34px" style="text-decoration-line:none">0</text><text x="1198.41" y="776" font-size="46px" style="text-decoration-line:none">𝛼</text><text x="1225.91" y="785" font-size="34px" style="text-decoration-line:none">𝐿𝑑</text><text x="1268.4" y="776" font-size="46px" style="text-decoration-line:none">𝜌</text><text x="1292.74" y="786" font-size="34px" style="text-decoration-line:none">𝐿𝑔</text><text x="1295.1899" y="758" font-size="34px" style="text-decoration-line:none">3</text><text x="1335.89" y="776" font-size="46px" style="text-decoration-line:none">𝜌</text><g font-size="34px"><text x="1360.23" y="787" style="text-decoration-line:none">𝐿</text><text x="1378.5601" y="787" style="text-decoration-line:none">𝑑</text><text x="1362.6801" y="757" style="text-decoration-line:none">3</text></g><text x="1402.71" y="776" font-size="46px" style="text-decoration-line:none">𝜏</text><text x="1423.91" y="785" font-size="34px" style="text-decoration-line:none">𝐿𝑔</text><text x="1467.0601" y="776" font-size="46px" style="text-decoration-line:none">𝑀</text><text x="1503.34" y="785" font-size="34px" style="text-decoration-line:none">𝑎</text><text x="1507.15" y="759" font-size="34px" style="text-decoration-line:none">0</text><text x="37.970001" y="920" font-size="46px" style="text-decoration-line:none">𝑄</text></g><path d="m57.191 885.06c-0.71875 0-1.3177-0.2508-1.7969-0.7524-0.47917-0.5016-0.71875-1.1343-0.71875-1.898 0-0.7636 0.23958-1.3963 0.71875-1.8979 0.47916-0.5016 1.0781-0.7525 1.7969-0.7525 0.70378 0 1.2952 0.2509 1.7744 0.7525 0.47917 0.5016 0.71875 1.1343 0.71875 1.8979 0 0.7637-0.23958 1.3964-0.71875 1.898-0.47916 0.5016-1.0706 0.7524-1.7744 0.7524z" clip-path="url(#clipPath8797)"/><g><text x="-2363.9844" y="-158.605" fill-opacity="0" font-family="Arial, Arial_MSFontService, sans-serif" font-size="5.3008px">ሶ</text><g font-family="'Cambria Math', 'Cambria Math_MSFontService', sans-serif" font-weight="400"><text x="68.910004" y="932" font-size="34px" style="text-decoration-line:none">𝑀</text><text x="96.339996" y="939" font-size="28px" style="text-decoration-line:none">𝑎</text><text x="98.949997" y="919" font-size="28px" style="text-decoration-line:none">0</text><text x="116.96" y="932" font-size="34px" style="text-decoration-line:none">𝑔</text><text x="154.52" y="920" font-size="46px" style="text-decoration-line:none">=</text></g></g><path d="m830.3 838.72c6.77 6.633 12.05 15.73 15.85 27.29 3.79 11.558 5.69 25.088 5.69 40.588 0 15.62-1.9 29.21-5.69 40.77-3.8 11.56-9.08 20.65-15.85 27.29l-1.44-1.6c6.07-6.78 10.65-15.89 13.75-27.33s4.65-24.47 4.65-39.09c0-14.54-1.55-27.53-4.65-38.977-3.1-11.448-7.68-20.563-13.75-27.347zm-603.52 0 1.43 1.594c-6.06 6.784-10.64 15.899-13.74 27.347-3.1 11.447-4.65 24.437-4.65 38.977 0 14.62 1.55 27.65 4.65 39.09s7.68 20.55 13.74 27.33l-1.43 1.6c-6.77-6.64-12.05-15.73-15.85-27.29s-5.69-25.15-5.69-40.77c0-15.5 1.89-29.03 5.69-40.588 3.8-11.56 9.08-20.657 15.85-27.29z" clip-path="url(#clipPath8789)" fill-rule="evenodd"/><g font-family="'Cambria Math', 'Cambria Math_MSFontService', sans-serif" font-weight="400"><text x="229.58" y="920" font-size="46px" style="text-decoration-line:none">𝛼</text><text x="257.07999" y="929" font-size="34px" style="text-decoration-line:none">𝐿𝑔</text><text x="310.39999" y="920" font-size="46px" style="text-decoration-line:none">+</text><text x="354.95001" y="920" font-size="46px" style="text-decoration-line:none">𝛼</text><text x="382.45001" y="929" font-size="34px" style="text-decoration-line:none">𝐿𝑔</text><text x="425.60999" y="920" font-size="46px" style="text-decoration-line:none">𝜌</text><text x="449.94" y="929" font-size="34px" style="text-decoration-line:none">𝐿</text><text x="468.28" y="929" font-size="34px" style="text-decoration-line:none">𝑑</text><text x="492.42999" y="920" font-size="46px" style="text-decoration-line:none">𝜏</text><text x="513.63" y="929" font-size="34px" style="text-decoration-line:none">𝐿𝑔</text></g><path d="m576.8 865.89 26.796 36.387v2.7178l-28.93 39.262h38.97c1.722 0 3.0397-0.6064 3.9531-1.8193s1.6996-3.9232 2.3584-8.1309h3.3242l-1.1455 16.464h-55.231v-2.2237l31.468-42.653-30.547-40.812v-2.1338h54.243v13.297h-2.9648c-0.3444-3.1895-1.0407-5.7126-2.0889-7.5693-1.0481-1.8568-2.6354-2.7852-4.7617-2.7852z" clip-path="url(#clipPath8781)"/><text x="-2354.416" y="-112.2063" fill="#000000" fill-opacity="0" font-family="Arial, Arial_MSFontService, sans-serif" font-size="87.822px">෍</text><path d="m785.91 878.9c4.67 1.23 8.27 4.41 10.8 9.55s3.8 11.22 3.8 18.24-1.27 13.1-3.8 18.24c-2.53 5.13-6.13 8.31-10.8 9.54l-0.56-1.84c3.62-1.36 6.36-4.33 8.23-8.9 1.86-4.58 2.79-10.25 2.79-17.02 0-6.78-0.93-12.46-2.79-17.05-1.87-4.58-4.61-7.55-8.23-8.91zm-138.28 0 0.57 1.85c-3.63 1.36-6.37 4.33-8.24 8.91-1.86 4.59-2.79 10.27-2.79 17.05 0 6.77 0.93 12.44 2.79 17.02 1.87 4.57 4.61 7.54 8.24 8.9l-0.57 1.84c-4.67-1.23-8.27-4.41-10.8-9.54-2.53-5.14-3.8-11.22-3.8-18.24s1.27-13.1 3.8-18.24 6.13-8.32 10.8-9.55z" clip-path="url(#clipPath8773)" fill-rule="evenodd"/><g font-family="'Cambria Math', 'Cambria Math_MSFontService', sans-serif" font-weight="400"><text x="649.57001" y="920" font-size="46px" style="text-decoration-line:none">𝜌</text><text x="673.90997" y="929" font-size="34px" style="text-decoration-line:none">𝐿𝑔</text><text x="717.06" y="920" font-size="46px" style="text-decoration-line:none">𝜌</text><g font-size="34px"><text x="741.40002" y="929" style="text-decoration-line:none">𝐿</text><text x="759.72998" y="929" style="text-decoration-line:none">𝑑</text><text x="804.46002" y="889" style="text-decoration-line:none">𝑘</text><text x="581.21002" y="852" style="text-decoration-line:none">∞</text><text x="564.40997" y="978" style="text-decoration-line:none">𝑘</text><text x="585.45001" y="978" style="text-decoration-line:none">=</text><text x="609.51001" y="978" style="text-decoration-line:none">0</text></g><text x="862.96997" y="920" font-size="46px" style="text-decoration-line:none">𝑀</text><text x="899.25" y="929" font-size="34px" style="text-decoration-line:none">𝑎</text><text x="903.04999" y="903" font-size="34px" style="text-decoration-line:none">0</text><text x="1186.45" y="1086" font-size="46px" style="text-decoration-line:none">𝑄</text></g><path d="m1205.7 1051.1c-0.7188 0-1.3178-0.2508-1.7969-0.7524-0.4792-0.5016-0.7188-1.1343-0.7188-1.898 0-0.7636 0.2396-1.3963 0.7188-1.8979 0.4791-0.5016 1.0781-0.7525 1.7969-0.7525 0.7037 0 1.2952 0.2509 1.7744 0.7525 0.4791 0.5016 0.7187 1.1343 0.7187 1.8979 0 0.7637-0.2396 1.3964-0.7187 1.898-0.4792 0.5016-1.0707 0.7524-1.7744 0.7524z" clip-path="url(#clipPath8765)"/><g><text x="-2363.9844" y="-158.605" fill-opacity="0" font-family="Arial, Arial_MSFontService, sans-serif" font-size="5.3008px">ሶ</text><g font-family="'Cambria Math', 'Cambria Math_MSFontService', sans-serif" font-weight="400"><text x="1217.39" y="1098" font-size="34px" style="text-decoration-line:none">𝑀</text><text x="1244.8199" y="1105" font-size="28px" style="text-decoration-line:none">𝑎</text><text x="1247.4301" y="1085" font-size="28px" style="text-decoration-line:none">0</text><text x="1265.4399" y="1098" font-size="34px" style="text-decoration-line:none">𝑑</text><text x="1302.34" y="1086" font-size="46px" style="text-decoration-line:none">=</text><text x="1349.45" y="1086" font-size="46px" style="text-decoration-line:none">𝛼</text><text x="1376.95" y="1095" font-size="34px" style="text-decoration-line:none">𝐿𝑑</text><text x="1419.4399" y="1086" font-size="46px" style="text-decoration-line:none">𝜏</text><text x="1440.64" y="1095" font-size="34px" style="text-decoration-line:none">𝐿𝑔</text><g font-size="46px"><text x="1585.9301" y="1051" style="text-decoration-line:none">1</text><text x="1491.42" y="1116" style="text-decoration-line:none">1</text><text x="1526.8101" y="1116" style="text-decoration-line:none">−</text><text x="1571.36" y="1116" style="text-decoration-line:none">𝜌</text></g><text x="1595.6899" y="1126" font-size="34px" style="text-decoration-line:none">𝐿𝑔</text><text x="1638.85" y="1116" font-size="46px" style="text-decoration-line:none">𝜌</text><text x="1663.1801" y="1126" font-size="34px" style="text-decoration-line:none">𝐿</text><text x="1681.52" y="1126" font-size="34px" style="text-decoration-line:none">𝑑</text></g></g><path d="m1491.4 1070.6h214v3h-214z" clip-path="url(#clipPath8757)" fill-rule="evenodd"/><g font-family="'Cambria Math', 'Cambria Math_MSFontService', sans-serif" font-weight="400"><text x="1713.3" y="1086" font-size="46px" style="text-decoration-line:none">𝑀</text><text x="1749.58" y="1095" font-size="34px" style="text-decoration-line:none">𝑎</text><text x="1753.38" y="1069" font-size="34px" style="text-decoration-line:none">0</text><text x="44.029999" y="1098" font-size="46px" style="text-decoration-line:none">𝑄</text></g><path d="m63.251 1063.1c-0.71875 0-1.3177-0.2508-1.7969-0.7524-0.47917-0.5016-0.71875-1.1343-0.71875-1.898 0-0.7636 0.23958-1.3963 0.71875-1.8979 0.47916-0.5016 1.0781-0.7525 1.7969-0.7525 0.70378 0 1.2952 0.2509 1.7744 0.7525 0.47917 0.5016 0.71875 1.1343 0.71875 1.8979 0 0.7637-0.23958 1.3964-0.71875 1.898-0.47916 0.5016-1.0706 0.7524-1.7744 0.7524z" clip-path="url(#clipPath8749)" fill="#836967"/><g><text x="-2363.9844" y="-158.605" fill-opacity="0" font-family="Arial, Arial_MSFontService, sans-serif" font-size="5.3008px">ሶ</text><g font-family="'Cambria Math', 'Cambria Math_MSFontService', sans-serif" font-weight="400"><text x="74.970001" y="1110" font-size="34px" style="text-decoration-line:none">𝑀</text><text x="102.4" y="1117" font-size="28px" style="text-decoration-line:none">𝑎</text><text x="105.01" y="1097" font-size="28px" style="text-decoration-line:none">0</text><text x="123.03" y="1110" font-size="34px" style="text-decoration-line:none">𝑔</text><text x="160.59" y="1098" font-size="46px" style="text-decoration-line:none">=</text><text x="207.7" y="1098" font-size="46px" style="text-decoration-line:none">𝛼</text><text x="235.2" y="1107" font-size="34px" style="text-decoration-line:none">𝐿𝑔</text></g></g><path d="m747.8 1025.9c6.15 5.27 11.04 13.13 14.65 23.58 3.62 10.45 5.43 22.12 5.43 34.99 0 12.69-1.81 24.33-5.43 34.94-3.61 10.61-8.5 18.54-14.65 23.78l-1.06-1.67c5.32-5.4 9.41-13.23 12.29-23.47 2.87-10.24 4.31-21.43 4.31-33.55 0-12.42-1.44-23.66-4.33-33.72s-6.98-17.79-12.27-23.2zm-437.96 0 1.06 1.68c-5.3 5.41-9.4 13.14-12.28 23.2s-4.32 21.3-4.32 33.72c0 12.12 1.44 23.31 4.31 33.55 2.88 10.24 6.97 18.07 12.29 23.47l-1.06 1.67c-6.15-5.24-11.04-13.17-14.65-23.78-3.62-10.61-5.43-22.25-5.43-34.94 0-12.87 1.81-24.54 5.43-34.99 3.61-10.45 8.5-18.31 14.65-23.58z" clip-path="url(#clipPath8741)" fill="#836967" fill-rule="evenodd"/><g font-family="'Cambria Math', 'Cambria Math_MSFontService', sans-serif" font-weight="400"><g font-size="46px"><text x="312.26999" y="1098" style="text-decoration-line:none">1</text><text x="347.66" y="1098" style="text-decoration-line:none">+</text><text x="392.20999" y="1098" style="text-decoration-line:none">𝜌</text></g><text x="416.54001" y="1107" font-size="34px" style="text-decoration-line:none">𝐿</text><text x="434.88" y="1107" font-size="34px" style="text-decoration-line:none">𝑑</text><text x="459.03" y="1098" font-size="46px" style="text-decoration-line:none">𝜏</text><text x="480.23001" y="1107" font-size="34px" style="text-decoration-line:none">𝐿𝑔</text><g font-size="46px"><text x="625.52002" y="1063" style="text-decoration-line:none">1</text><text x="531.01001" y="1128" style="text-decoration-line:none">1</text><text x="566.40002" y="1128" style="text-decoration-line:none">−</text><text x="610.95001" y="1128" style="text-decoration-line:none">𝜌</text></g><text x="635.28003" y="1138" font-size="34px" style="text-decoration-line:none">𝐿𝑔</text><text x="678.44" y="1128" font-size="46px" style="text-decoration-line:none">𝜌</text><text x="702.77002" y="1138" font-size="34px" style="text-decoration-line:none">𝐿</text><text x="721.10999" y="1138" font-size="34px" style="text-decoration-line:none">𝑑</text></g><path d="m531.03 1082.7h214v3h-214z" clip-path="url(#clipPath8733)" fill="#836967" fill-rule="evenodd"/><g font-family="'Cambria Math', 'Cambria Math_MSFontService', sans-serif" font-weight="400"><text x="779.17999" y="1098" font-size="46px" style="text-decoration-line:none">𝑀</text><text x="815.45001" y="1107" font-size="34px" style="text-decoration-line:none">𝑎</text><text x="819.26001" y="1081" font-size="34px" style="text-decoration-line:none">0</text></g><rect transform="translate(-1.2323 16.859)" x="1042" y="85" width="145" height="649" clip-path="url(#clipPath8725-4)" fill="#afabab" fill-opacity=".2"/></svg>
