<?xml version="1.0" encoding="UTF-8"?>
<svg width="2058" height="1306" overflow="hidden" version="1.1" xml:space="preserve" xmlns="http://www.w3.org/2000/svg"><defs><clipPath id="clipPath2826"><rect width="2058" height="1306"/></clipPath><clipPath id="clipPath2834"><rect width="2058" height="1306"/></clipPath><clipPath id="clipPath2842"><rect width="2058" height="1306"/></clipPath><clipPath id="clipPath2850"><rect width="2058" height="1306"/></clipPath><clipPath id="clipPath2858"><rect width="2058" height="1306"/></clipPath><clipPath id="clipPath2866"><rect width="2058" height="1306"/></clipPath><clipPath id="clipPath2874"><rect width="2058" height="1306"/></clipPath><clipPath id="clipPath2882"><rect width="2058" height="1306"/></clipPath><clipPath id="clipPath2890"><rect width="2058" height="1306"/></clipPath><clipPath id="clipPath2898"><rect width="2058" height="1306"/></clipPath><clipPath id="clipPath2906"><rect width="2058" height="1306"/></clipPath><clipPath id="clipPath2914"><rect width="2058" height="1306"/></clipPath><clipPath id="clipPath2922"><rect width="2058" height="1306"/></clipPath><clipPath id="clipPath2930"><rect width="2058" height="1306"/></clipPath><clipPath id="clipPath2938"><rect width="2058" height="1306"/></clipPath><clipPath id="clipPath2946"><rect width="2058" height="1306"/></clipPath><clipPath id="clipPath2954"><rect width="2058" height="1306"/></clipPath><clipPath id="clipPath2962"><rect width="2058" height="1306"/></clipPath><clipPath id="clipPath2970"><rect width="2058" height="1306"/></clipPath><clipPath id="clipPath2978"><rect width="2058" height="1306"/></clipPath><clipPath id="clipPath2986"><rect width="2058" height="1306"/></clipPath><clipPath id="clipPath2994"><rect width="2058" height="1306"/></clipPath><clipPath id="clipPath3002"><rect width="2058" height="1306"/></clipPath><clipPath id="clipPath3010"><rect width="2058" height="1306"/></clipPath><clipPath id="clipPath3018"><rect width="2058" height="1306"/></clipPath><clipPath id="clipPath3026"><rect width="2058" height="1306"/></clipPath><clipPath id="clipPath3034"><rect width="2058" height="1306"/></clipPath><clipPath id="clipPath3042"><rect width="2058" height="1306"/></clipPath><clipPath id="clipPath3050"><rect width="2058" height="1306"/></clipPath><clipPath id="clipPath3058"><rect width="2058" height="1306"/></clipPath><clipPath id="clipPath3066"><rect width="2058" height="1306"/></clipPath><clipPath id="clipPath3074"><rect width="2058" height="1306"/></clipPath></defs><g fill="none" fill-rule="evenodd" stroke="#4472c4" stroke-miterlimit="8" stroke-width="2.2917"><path d="m431 92v649.61" clip-path="url(#clipPath3074)"/><path d="m587 92v649.61" clip-path="url(#clipPath3066)"/><path d="m1037 92v649.61" clip-path="url(#clipPath3058)"/><path d="m1193 92v649.61" clip-path="url(#clipPath3050)"/></g><text x="477.98999" y="60" fill="#000000" font-family="Calibri, Calibri_MSFontService, sans-serif" font-size="46px" font-weight="400" style="text-decoration-line:none">glass</text><text x="1081.87" y="63" fill="#000000" font-family="Calibri, Calibri_MSFontService, sans-serif" font-size="46px" font-weight="400" style="text-decoration-line:none">disc</text><g fill="#0070c0"><path d="m1036.3 196.07-428.83 112.37 2.323 8.867 428.83-112.37zm4.6472 17.735c7.3459-1.9249 11.74-9.4404 9.8155-16.786-1.9249-7.3459-9.4404-11.74-16.786-9.8155-7.3459 1.9249-11.74 9.4404-9.8155 16.786 1.9249 7.3459 9.4404 11.74 16.786 9.8155zm-431.37 84.609-23.117 20.272 30.088 6.33z" clip-path="url(#clipPath3042)"/><path d="m557.08 326.65-30.512 69.13 8.3861 3.7015 30.512-69.13zm16.772 7.4029c3.0664-6.9473-0.0797-15.065-7.027-18.131-6.9473-3.0664-15.065 0.0797-18.131 7.027-3.0664 6.9473 0.0797 15.065 7.027 18.131 6.9473 3.0664 15.065-0.0797 18.131-7.027zm-53.82 53.832 1.4748 30.711 23.684-19.606z" clip-path="url(#clipPath3034)"/><path d="m588.99 322.94 430.43 46.691-0.99 9.113-430.42-46.69zm426.86 37.084 25.85 16.635-28.82 10.704z" clip-path="url(#clipPath3026)"/><path d="m1027.6 387.02-419.65 91.361 1.95 8.9568 419.65-91.361zm-417.12 81.429-23.946 19.285 29.796 7.5857z" clip-path="url(#clipPath3018)"/></g><g fill="#000000" font-family="'Cambria Math', 'Cambria Math_MSFontService', sans-serif" font-weight="400"><text x="775.72998" y="329" font-size="46px" style="text-decoration-line:none">𝜌</text><text x="800.07001" y="338" font-size="34px" style="text-decoration-line:none">𝐿𝑔</text><text x="843.21997" y="329" font-size="46px" style="text-decoration-line:none">𝜀</text><text x="863.03998" y="338" font-size="34px" style="text-decoration-line:none">𝐿</text><text x="881.37" y="338" font-size="34px" style="text-decoration-line:none">𝑑</text><text x="905.53003" y="329" font-size="46px" style="text-decoration-line:none">𝑀</text><text x="941.81" y="340" font-size="34px" style="text-decoration-line:none">𝑑</text><text x="945.60999" y="311" font-size="34px" style="text-decoration-line:none">0</text></g><g fill="#0070c0"><path d="m588.99 497.94 430.43 46.691-0.99 9.113-430.42-46.691zm426.86 37.084 25.85 16.635-28.82 10.704z" clip-path="url(#clipPath3010)"/><path d="m1060.8 386.83 28.27 72.128-8.53 3.345-28.28-72.127zm-17.07 6.691c-2.77-7.07 0.71-15.048 7.78-17.819 7.07-2.772 15.05 0.713 17.82 7.783s-0.71 15.048-7.78 17.82c-7.07 2.771-15.05-0.714-17.82-7.784zm52.2 57.824-2.76 30.621-22.84-20.585z" clip-path="url(#clipPath3002)"/><path d="m1020.6 556.02-419.65 91.361 1.95 8.9568 419.65-91.361zm-417.12 81.429-23.946 19.285 29.796 7.5857z" clip-path="url(#clipPath2994)"/><path d="m588.99 669.94 430.43 46.69-0.99 9.114-430.42-46.691zm426.86 37.083 25.85 16.635-28.82 10.704z" clip-path="url(#clipPath2986)"/><path d="m1028.8 727.99-27.036 5.0294 1.6765 9.0121 27.036-5.0294zm-36.048 6.7059-27.036 5.0294 1.6764 9.012 27.036-5.0294zm-36.048 6.7059-27.036 5.0295 1.6765 9.012 27.036-5.0294zm-36.048 6.706-17.429 3.2422 1.677 9.0121 17.429-3.2423zm-14.599-6.6081-24.522 18.547 29.551 8.4887z" clip-path="url(#clipPath2978)"/></g><g fill="#000000" font-family="'Cambria Math', 'Cambria Math_MSFontService', sans-serif" font-weight="400"><text x="889.10999" y="179" font-size="46px" style="text-decoration-line:none">𝜀</text><text x="908.92999" y="188" font-size="34px" style="text-decoration-line:none">𝐿</text><text x="927.27002" y="188" font-size="34px" style="text-decoration-line:none">𝑑</text><text x="951.41998" y="179" font-size="46px" style="text-decoration-line:none">𝑀</text><text x="987.70001" y="190" font-size="34px" style="text-decoration-line:none">𝑑</text><text x="991.5" y="160" font-size="34px" style="text-decoration-line:none">0</text><text x="226.89" y="340" font-size="46px" style="text-decoration-line:none">𝛼</text><text x="254.39" y="350" font-size="34px" style="text-decoration-line:none">𝐿𝑔</text><text x="297.54001" y="340" font-size="46px" style="text-decoration-line:none">𝜀</text><text x="317.35999" y="350" font-size="34px" style="text-decoration-line:none">𝐿</text><text x="335.70001" y="350" font-size="34px" style="text-decoration-line:none">𝑑</text><text x="359.85001" y="340" font-size="46px" style="text-decoration-line:none">𝑀</text><text x="396.13" y="351" font-size="34px" style="text-decoration-line:none">𝑑</text><text x="399.92999" y="322" font-size="34px" style="text-decoration-line:none">0</text><text x="1018.96" y="965" font-size="46px" style="text-decoration-line:none">𝑄</text></g><path d="m1038.2 930.06c-0.7188 0-1.3178-0.2508-1.7969-0.7524-0.4792-0.5016-0.7188-1.1343-0.7188-1.898 0-0.7636 0.2396-1.3963 0.7188-1.8979 0.4791-0.5016 1.0781-0.7525 1.7969-0.7525 0.7037 0 1.2952 0.2509 1.7744 0.7525 0.4791 0.5016 0.7187 1.1343 0.7187 1.8979 0 0.7637-0.2396 1.3964-0.7187 1.898-0.4792 0.5016-1.0707 0.7524-1.7744 0.7524z" clip-path="url(#clipPath2970)"/><g fill="#000000"><text x="-2308.9844" y="-163.605" fill-opacity="0" font-family="Arial, Arial_MSFontService, sans-serif" font-size="5.3008px">ሶ</text><g font-family="'Cambria Math', 'Cambria Math_MSFontService', sans-serif" font-weight="400"><text x="1049.9" y="980" font-size="34px" style="text-decoration-line:none">𝑀</text><text x="1077.33" y="989" font-size="28px" style="text-decoration-line:none">𝑑</text><text x="1079.9399" y="965" font-size="28px" style="text-decoration-line:none">0</text><text x="1097.95" y="980" font-size="34px" style="text-decoration-line:none">𝑑</text><g font-size="46px"><text x="1134.85" y="965" style="text-decoration-line:none">=</text><text x="1181.97" y="965" style="text-decoration-line:none">−</text><text x="1216.34" y="965" style="text-decoration-line:none">𝜀</text></g><text x="1236.16" y="974" font-size="34px" style="text-decoration-line:none">𝐿</text><text x="1254.5" y="974" font-size="34px" style="text-decoration-line:none">𝑑</text><text x="1278.65" y="965" font-size="46px" style="text-decoration-line:none">𝑀</text><text x="1314.9301" y="976" font-size="34px" style="text-decoration-line:none">𝑑</text><text x="1318.73" y="947" font-size="34px" style="text-decoration-line:none">0</text><text x="1350.29" y="965" font-size="46px" style="text-decoration-line:none">+</text><text x="1394.84" y="965" font-size="46px" style="text-decoration-line:none">𝛼</text><text x="1422.34" y="974" font-size="34px" style="text-decoration-line:none">𝐿</text><text x="1440.67" y="974" font-size="34px" style="text-decoration-line:none">𝑑</text><text x="1464.83" y="965" font-size="46px" style="text-decoration-line:none">𝜌</text><text x="1489.16" y="974" font-size="34px" style="text-decoration-line:none">𝐿𝑔</text><text x="1532.3199" y="965" font-size="46px" style="text-decoration-line:none">𝜀</text><text x="1552.14" y="974" font-size="34px" style="text-decoration-line:none">𝐿</text><text x="1570.47" y="974" font-size="34px" style="text-decoration-line:none">𝑑</text></g></g><path d="m1896.1 883.96c6.77 6.63 12.05 15.73 15.85 27.29 3.79 11.56 5.69 25.08 5.69 40.58 0 15.62-1.9 29.21-5.69 40.77-3.8 11.56-9.08 20.66-15.85 27.29l-1.43-1.6c6.06-6.78 10.64-15.89 13.74-27.33s4.65-24.47 4.65-39.08c0-14.54-1.55-27.54-4.65-38.98-3.1-11.45-7.68-20.57-13.74-27.35zm-268.69 0 1.44 1.59c-6.07 6.78-10.65 15.9-13.75 27.35-3.1 11.44-4.65 24.44-4.65 38.98 0 14.61 1.55 27.64 4.65 39.08s7.68 20.55 13.75 27.33l-1.44 1.6c-6.77-6.63-12.05-15.73-15.84-27.29-3.8-11.56-5.7-25.15-5.7-40.77 0-15.5 1.9-29.02 5.7-40.58 3.79-11.56 9.07-20.66 15.84-27.29z" clip-path="url(#clipPath2962)" fill-rule="evenodd"/><path d="m1642.6 910.89 26.796 36.387v2.7178l-28.93 39.262h38.97c1.722 0 3.0397-0.6064 3.9531-1.8193s1.6996-3.9232 2.3584-8.1309h3.3242l-1.1455 16.464h-55.231v-2.2237l31.468-42.653-30.547-40.812v-2.1338h54.243v13.297h-2.9648c-0.3444-3.1895-1.0407-5.7126-2.0889-7.5693-1.0481-1.8568-2.6354-2.7852-4.7617-2.7852z" clip-path="url(#clipPath2954)"/><text x="-2299.416" y="-117.2063" fill="#000000" fill-opacity="0" font-family="Arial, Arial_MSFontService, sans-serif" font-size="87.822px">෍</text><path d="m1851.7 924.14c4.67 1.23 8.27 4.41 10.8 9.54 2.53 5.14 3.8 11.22 3.8 18.24s-1.27 13.1-3.8 18.24-6.13 8.32-10.8 9.55l-0.56-1.85c3.62-1.36 6.36-4.33 8.23-8.9 1.86-4.58 2.79-10.25 2.79-17.02 0-6.78-0.93-12.46-2.79-17.04-1.87-4.59-4.61-7.56-8.23-8.92zm-138.27 0 0.56 1.84c-3.63 1.36-6.37 4.33-8.24 8.92-1.86 4.58-2.79 10.26-2.79 17.04 0 6.77 0.93 12.44 2.79 17.02 1.87 4.57 4.61 7.54 8.24 8.9l-0.56 1.85c-4.68-1.23-8.28-4.41-10.81-9.55s-3.79-11.22-3.79-18.24 1.26-13.1 3.79-18.24c2.53-5.13 6.13-8.31 10.81-9.54z" clip-path="url(#clipPath2946)" fill-rule="evenodd"/><g fill="#000000" font-family="'Cambria Math', 'Cambria Math_MSFontService', sans-serif" font-weight="400"><text x="1715.35" y="965" font-size="46px" style="text-decoration-line:none">𝜌</text><text x="1739.6899" y="974" font-size="34px" style="text-decoration-line:none">𝐿</text><text x="1758.02" y="974" font-size="34px" style="text-decoration-line:none">𝑑</text><text x="1782.1801" y="965" font-size="46px" style="text-decoration-line:none">𝜌</text><g font-size="34px"><text x="1806.51" y="974" style="text-decoration-line:none">𝐿𝑔</text><text x="1870.25" y="935" style="text-decoration-line:none">𝑘</text><text x="1646.99" y="897" style="text-decoration-line:none">∞</text><text x="1630.1899" y="1023" style="text-decoration-line:none">𝑘</text><text x="1651.23" y="1023" style="text-decoration-line:none">=</text><text x="1675.29" y="1023" style="text-decoration-line:none">0</text></g><text x="1928.75" y="965" font-size="46px" style="text-decoration-line:none">𝑀</text><text x="1965.03" y="976" font-size="34px" style="text-decoration-line:none">𝑑</text><text x="1968.83" y="947" font-size="34px" style="text-decoration-line:none">0</text><text x="588.53003" y="417" font-size="46px" style="text-decoration-line:none">𝜌</text><text x="612.87" y="427" font-size="34px" style="text-decoration-line:none">𝐿</text><text x="631.21002" y="427" font-size="34px" style="text-decoration-line:none">𝑑</text><text x="655.35999" y="417" font-size="46px" style="text-decoration-line:none">𝜌</text><text x="679.70001" y="427" font-size="34px" style="text-decoration-line:none">𝐿𝑔</text><text x="722.84998" y="417" font-size="46px" style="text-decoration-line:none">𝜀</text><text x="742.66998" y="427" font-size="34px" style="text-decoration-line:none">𝑑𝐺</text><text x="789.01001" y="417" font-size="46px" style="text-decoration-line:none">𝑀</text><text x="825.28998" y="428" font-size="34px" style="text-decoration-line:none">𝑑</text><text x="829.09003" y="399" font-size="34px" style="text-decoration-line:none">0</text><text x="766.98999" y="506" font-size="46px" style="text-decoration-line:none">𝜌</text><text x="791.33002" y="516" font-size="34px" style="text-decoration-line:none">𝑑𝐺</text><text x="837.66998" y="506" font-size="46px" style="text-decoration-line:none">𝜌</text><text x="862.01001" y="517" font-size="34px" style="text-decoration-line:none">𝑣𝐺</text><text x="864.46002" y="488" font-size="34px" style="text-decoration-line:none">2</text><text x="906.04999" y="506" font-size="46px" style="text-decoration-line:none">𝜀</text><text x="925.88" y="516" font-size="34px" style="text-decoration-line:none">𝐿𝑑</text><text x="968.35999" y="506" font-size="46px" style="text-decoration-line:none">𝑀</text><text x="1004.64" y="517" font-size="34px" style="text-decoration-line:none">𝑑</text><text x="1008.44" y="488" font-size="34px" style="text-decoration-line:none">0</text><text x="590.53003" y="585" font-size="46px" style="text-decoration-line:none">𝜌</text><g font-size="34px"><text x="614.87" y="596" style="text-decoration-line:none">𝐿</text><text x="633.20001" y="596" style="text-decoration-line:none">𝑑</text><text x="617.32001" y="567" style="text-decoration-line:none">2</text></g><text x="657.34998" y="585" font-size="46px" style="text-decoration-line:none">𝜌</text><text x="681.69" y="596" font-size="34px" style="text-decoration-line:none">𝐿𝑔</text><text x="684.14001" y="568" font-size="34px" style="text-decoration-line:none">2</text><text x="724.84003" y="585" font-size="46px" style="text-decoration-line:none">𝜀</text><text x="744.66998" y="595" font-size="34px" style="text-decoration-line:none">𝑑𝐺</text><text x="791" y="585" font-size="46px" style="text-decoration-line:none">𝑀</text><text x="827.28003" y="596" font-size="34px" style="text-decoration-line:none">𝑑</text><text x="831.08002" y="567" font-size="34px" style="text-decoration-line:none">0</text><text x="772.29999" y="677" font-size="46px" style="text-decoration-line:none">𝜌</text><g font-size="34px"><text x="796.63" y="688" style="text-decoration-line:none">𝐿</text><text x="814.96997" y="688" style="text-decoration-line:none">𝑑</text><text x="799.09003" y="659" style="text-decoration-line:none">2</text></g><text x="839.12" y="677" font-size="46px" style="text-decoration-line:none">𝜌</text><text x="863.46002" y="688" font-size="34px" style="text-decoration-line:none">𝐿𝑔</text><text x="865.90997" y="660" font-size="34px" style="text-decoration-line:none">3</text><text x="906.60999" y="677" font-size="46px" style="text-decoration-line:none">𝜀</text><text x="926.42999" y="687" font-size="34px" style="text-decoration-line:none">𝐿𝑑</text><text x="968.91998" y="677" font-size="46px" style="text-decoration-line:none">𝑀</text><text x="1005.2" y="688" font-size="34px" style="text-decoration-line:none">𝑑</text><text x="1009" y="659" font-size="34px" style="text-decoration-line:none">0</text><text x="1201.8199" y="559" font-size="46px" style="text-decoration-line:none">𝛼</text><text x="1229.3199" y="568" font-size="34px" style="text-decoration-line:none">𝐿𝑑</text><text x="1271.8" y="559" font-size="46px" style="text-decoration-line:none">𝜌</text><text x="1296.14" y="568" font-size="34px" style="text-decoration-line:none">𝐿</text><text x="1314.47" y="568" font-size="34px" style="text-decoration-line:none">𝑑</text><text x="1338.63" y="559" font-size="46px" style="text-decoration-line:none">𝜌</text><text x="1362.97" y="569" font-size="34px" style="text-decoration-line:none">𝐿𝑔</text><text x="1365.42" y="541" font-size="34px" style="text-decoration-line:none">2</text><text x="1406.12" y="559" font-size="46px" style="text-decoration-line:none">𝜀</text><text x="1425.9399" y="568" font-size="34px" style="text-decoration-line:none">𝐿</text><text x="1444.27" y="568" font-size="34px" style="text-decoration-line:none">𝑑</text><text x="1468.4301" y="559" font-size="46px" style="text-decoration-line:none">𝑀</text><text x="1504.71" y="570" font-size="34px" style="text-decoration-line:none">𝑑</text><text x="1508.51" y="540" font-size="34px" style="text-decoration-line:none">0</text><text x="98.800003" y="667" font-size="46px" style="text-decoration-line:none">𝛼</text><text x="126.3" y="676" font-size="34px" style="text-decoration-line:none">𝐿𝑔</text><text x="169.46001" y="667" font-size="46px" style="text-decoration-line:none">𝜌</text><g font-size="34px"><text x="193.78999" y="678" style="text-decoration-line:none">𝐿</text><text x="212.13" y="678" style="text-decoration-line:none">𝑑</text><text x="196.25" y="649" style="text-decoration-line:none">2</text></g><text x="236.28" y="667" font-size="46px" style="text-decoration-line:none">𝜌</text><text x="260.62" y="677" font-size="34px" style="text-decoration-line:none">𝐿𝑔</text><text x="263.07001" y="649" font-size="34px" style="text-decoration-line:none">2</text><text x="303.76999" y="667" font-size="46px" style="text-decoration-line:none">𝜀</text><text x="323.59" y="676" font-size="34px" style="text-decoration-line:none">𝐿</text><text x="341.92999" y="676" font-size="34px" style="text-decoration-line:none">𝑑</text><text x="366.07999" y="667" font-size="46px" style="text-decoration-line:none">𝑀</text><text x="402.35999" y="678" font-size="34px" style="text-decoration-line:none">𝑑</text><text x="406.16" y="649" font-size="34px" style="text-decoration-line:none">0</text><text x="96.559998" y="498" font-size="46px" style="text-decoration-line:none">𝛼</text><text x="124.06" y="508" font-size="34px" style="text-decoration-line:none">𝐿𝑔</text><text x="167.21001" y="498" font-size="46px" style="text-decoration-line:none">𝜌</text><text x="191.55" y="508" font-size="34px" style="text-decoration-line:none">𝐿</text><text x="209.88" y="508" font-size="34px" style="text-decoration-line:none">𝑑</text><text x="234.03999" y="498" font-size="46px" style="text-decoration-line:none">𝜌</text><text x="258.37" y="508" font-size="34px" style="text-decoration-line:none">𝐿</text><text x="276.70999" y="508" font-size="34px" style="text-decoration-line:none">𝑔</text><text x="301.53" y="498" font-size="46px" style="text-decoration-line:none">𝜀</text><text x="321.35001" y="508" font-size="34px" style="text-decoration-line:none">𝐿</text><text x="339.67999" y="508" font-size="34px" style="text-decoration-line:none">𝑑</text><text x="363.84" y="498" font-size="46px" style="text-decoration-line:none">𝑀</text><text x="400.10999" y="509" font-size="34px" style="text-decoration-line:none">𝑑</text><text x="403.92001" y="480" font-size="34px" style="text-decoration-line:none">0</text><text x="1202.75" y="731" font-size="46px" style="text-decoration-line:none">𝛼</text><text x="1230.25" y="740" font-size="34px" style="text-decoration-line:none">𝐿𝑑</text><text x="1272.74" y="731" font-size="46px" style="text-decoration-line:none">𝜌</text><g font-size="34px"><text x="1297.0699" y="742" style="text-decoration-line:none">𝐿</text><text x="1315.41" y="742" style="text-decoration-line:none">𝑑</text><text x="1299.53" y="713" style="text-decoration-line:none">2</text></g><text x="1339.5601" y="731" font-size="46px" style="text-decoration-line:none">𝜌</text><text x="1363.9" y="741" font-size="34px" style="text-decoration-line:none">𝐿𝑔</text><text x="1366.35" y="713" font-size="34px" style="text-decoration-line:none">3</text><text x="1407.05" y="731" font-size="46px" style="text-decoration-line:none">𝜀</text><text x="1426.87" y="740" font-size="34px" style="text-decoration-line:none">𝐿</text><text x="1445.21" y="740" font-size="34px" style="text-decoration-line:none">𝑑</text><text x="1469.36" y="731" font-size="46px" style="text-decoration-line:none">𝑀</text><text x="1505.64" y="742" font-size="34px" style="text-decoration-line:none">𝑑</text><text x="1509.4399" y="712" font-size="34px" style="text-decoration-line:none">0</text><text x="45.919998" y="965" font-size="46px" style="text-decoration-line:none">𝑄</text></g><path d="m65.141 930.06c-0.71875 0-1.3177-0.2508-1.7969-0.7524-0.47917-0.5016-0.71875-1.1343-0.71875-1.898 0-0.7636 0.23958-1.3963 0.71875-1.8979 0.47916-0.5016 1.0781-0.7525 1.7969-0.7525 0.70378 0 1.2952 0.2509 1.7744 0.7525 0.47917 0.5016 0.71875 1.1343 0.71875 1.8979 0 0.7637-0.23958 1.3964-0.71875 1.898-0.47916 0.5016-1.0706 0.7524-1.7744 0.7524z" clip-path="url(#clipPath2938)" fill="#836967"/><g fill="#000000"><text x="-2308.9844" y="-163.605" fill-opacity="0" font-family="Arial, Arial_MSFontService, sans-serif" font-size="5.3008px">ሶ</text><g font-family="'Cambria Math', 'Cambria Math_MSFontService', sans-serif" font-weight="400"><text x="76.860001" y="979" font-size="34px" style="text-decoration-line:none">𝑀</text><text x="104.29" y="989" font-size="28px" style="text-decoration-line:none">𝑑</text><text x="106.9" y="964" font-size="28px" style="text-decoration-line:none">0</text><text x="124.92" y="979" font-size="34px" style="text-decoration-line:none">𝑔</text><text x="162.48" y="965" font-size="46px" style="text-decoration-line:none">=</text><text x="209.59" y="965" font-size="46px" style="text-decoration-line:none">𝛼</text><text x="237.09" y="974" font-size="34px" style="text-decoration-line:none">𝐿𝑔</text><text x="280.25" y="965" font-size="46px" style="text-decoration-line:none">𝜀</text><text x="300.07001" y="974" font-size="34px" style="text-decoration-line:none">𝐿</text><text x="318.39999" y="974" font-size="34px" style="text-decoration-line:none">𝑑</text></g></g><path d="m644.01 883.63c6.77 6.63 12.05 15.73 15.85 27.29 3.79 11.56 5.69 25.09 5.69 40.59 0 15.62-1.9 29.2-5.69 40.76-3.8 11.56-9.08 20.66-15.85 27.29l-1.43-1.59c6.06-6.78 10.64-15.89 13.74-27.33s4.65-24.47 4.65-39.09c0-14.54-1.55-27.53-4.65-38.98s-7.68-20.56-13.74-27.34zm-268.69 0 1.44 1.6c-6.06 6.78-10.65 15.89-13.75 27.34s-4.65 24.44-4.65 38.98c0 14.62 1.55 27.65 4.65 39.09s7.69 20.55 13.75 27.33l-1.44 1.59c-6.77-6.63-12.05-15.73-15.84-27.29-3.8-11.56-5.7-25.14-5.7-40.76 0-15.5 1.9-29.03 5.7-40.59 3.79-11.56 9.07-20.66 15.84-27.29z" clip-path="url(#clipPath2930)" fill="#836967" fill-rule="evenodd"/><path d="m390.52 910.89 26.796 36.387v2.7178l-28.93 39.262h38.97c1.722 0 3.0397-0.6064 3.9531-1.8193s1.6996-3.9232 2.3584-8.1309h3.3242l-1.1455 16.464h-55.231v-2.2237l31.468-42.653-30.547-40.812v-2.1338h54.243v13.297h-2.9648c-0.3444-3.1895-1.0407-5.7126-2.0889-7.5693-1.0481-1.8568-2.6354-2.7852-4.7617-2.7852z" clip-path="url(#clipPath2922)"/><text x="-2299.416" y="-117.2063" fill="#000000" fill-opacity="0" font-family="Arial, Arial_MSFontService, sans-serif" font-size="87.822px">෍</text><path d="m599.62 923.81c4.67 1.23 8.27 4.41 10.8 9.55s3.8 11.22 3.8 18.24-1.27 13.1-3.8 18.24c-2.53 5.13-6.13 8.31-10.8 9.54l-0.56-1.84c3.62-1.36 6.36-4.33 8.23-8.91 1.86-4.57 2.79-10.24 2.79-17.01 0-6.78-0.93-12.47-2.79-17.05-1.87-4.58-4.61-7.55-8.23-8.91zm-138.27 0 0.56 1.85c-3.63 1.36-6.37 4.33-8.23 8.91-1.87 4.58-2.8 10.27-2.8 17.05 0 6.77 0.93 12.44 2.8 17.01 1.86 4.58 4.6 7.55 8.23 8.91l-0.56 1.84c-4.68-1.23-8.28-4.41-10.81-9.54-2.53-5.14-3.79-11.22-3.79-18.24s1.26-13.1 3.79-18.24 6.13-8.32 10.81-9.55z" clip-path="url(#clipPath2914)" fill="#836967" fill-rule="evenodd"/><g fill="#000000" font-family="'Cambria Math', 'Cambria Math_MSFontService', sans-serif" font-weight="400"><text x="463.28" y="965" font-size="46px" style="text-decoration-line:none">𝜌</text><text x="487.62" y="974" font-size="34px" style="text-decoration-line:none">𝐿</text><text x="505.95001" y="974" font-size="34px" style="text-decoration-line:none">𝑑</text><text x="530.10999" y="965" font-size="46px" style="text-decoration-line:none">𝜌</text><g font-size="34px"><text x="554.44" y="974" style="text-decoration-line:none">𝐿𝑔</text><text x="618.17999" y="934" style="text-decoration-line:none">𝑘</text><text x="394.92001" y="897" style="text-decoration-line:none">∞</text><text x="378.12" y="1023" style="text-decoration-line:none">𝑘</text><text x="399.16" y="1023" style="text-decoration-line:none">=</text><text x="423.22" y="1023" style="text-decoration-line:none">0</text></g><text x="676.67999" y="965" font-size="46px" style="text-decoration-line:none">𝑀</text><text x="712.96002" y="976" font-size="34px" style="text-decoration-line:none">𝑑</text><text x="716.76001" y="946" font-size="34px" style="text-decoration-line:none">0</text><text x="42.369999" y="1174" font-size="46px" style="text-decoration-line:none">𝑄</text></g><path d="m61.591 1139.1c-0.71875 0-1.3177-0.2508-1.7969-0.7524-0.47917-0.5016-0.71875-1.1343-0.71875-1.898 0-0.7636 0.23958-1.3963 0.71875-1.8979 0.47916-0.5016 1.0781-0.7525 1.7969-0.7525 0.70378 0 1.2952 0.2509 1.7744 0.7525 0.47917 0.5016 0.71875 1.1343 0.71875 1.8979 0 0.7637-0.23958 1.3964-0.71875 1.898-0.47916 0.5016-1.0706 0.7524-1.7744 0.7524z" clip-path="url(#clipPath2906)" fill="#836967"/><g fill="#000000"><text x="-2308.9844" y="-163.605" fill-opacity="0" font-family="Arial, Arial_MSFontService, sans-serif" font-size="5.3008px">ሶ</text><g font-family="'Cambria Math', 'Cambria Math_MSFontService', sans-serif" font-weight="400"><text x="73.309998" y="1188" font-size="34px" style="text-decoration-line:none">𝑀</text><text x="100.74" y="1198" font-size="28px" style="text-decoration-line:none">𝑑</text><text x="103.35" y="1173" font-size="28px" style="text-decoration-line:none">0</text><text x="121.37" y="1188" font-size="34px" style="text-decoration-line:none">𝑔</text><text x="158.92999" y="1174" font-size="46px" style="text-decoration-line:none">=</text><text x="206.03999" y="1174" font-size="46px" style="text-decoration-line:none">𝛼</text><text x="233.53999" y="1183" font-size="34px" style="text-decoration-line:none">𝐿𝑔</text><text x="276.69" y="1174" font-size="46px" style="text-decoration-line:none">𝜀</text><text x="296.51999" y="1183" font-size="34px" style="text-decoration-line:none">𝐿</text><text x="314.85001" y="1183" font-size="34px" style="text-decoration-line:none">𝑑</text><g font-size="46px"><text x="441.14001" y="1139" style="text-decoration-line:none">1</text><text x="346.64001" y="1204" style="text-decoration-line:none">1</text><text x="382.01999" y="1204" style="text-decoration-line:none">−</text><text x="426.57001" y="1204" style="text-decoration-line:none">𝜌</text></g><text x="450.91" y="1214" font-size="34px" style="text-decoration-line:none">𝐿</text><text x="469.23999" y="1214" font-size="34px" style="text-decoration-line:none">𝑑</text><text x="493.39001" y="1204" font-size="46px" style="text-decoration-line:none">𝜌</text><text x="517.72998" y="1214" font-size="34px" style="text-decoration-line:none">𝐿𝑔</text></g></g><path d="m346.68 1158.7h214v3h-214z" clip-path="url(#clipPath2898)" fill="#836967" fill-rule="evenodd"/><g fill="#000000" font-family="'Cambria Math', 'Cambria Math_MSFontService', sans-serif" font-weight="400"><text x="564.69" y="1174" font-size="46px" style="text-decoration-line:none"> </text><text x="578.83002" y="1174" font-size="46px" style="text-decoration-line:none">𝑀</text><text x="615.09998" y="1185" font-size="34px" style="text-decoration-line:none">𝑑</text><text x="618.90997" y="1155" font-size="34px" style="text-decoration-line:none">0</text></g><g fill="#0070c0"><path d="m557.08 491.65-30.512 69.13 8.3861 3.7015 30.512-69.13zm16.772 7.4029c3.0664-6.9473-0.0797-15.065-7.027-18.131-6.9473-3.0664-15.065 0.0797-18.131 7.027-3.0664 6.9473 0.0797 15.065 7.027 18.131 6.9473 3.0664 15.065-0.0797 18.131-7.027zm-53.82 53.832 1.4748 30.711 23.684-19.606z" clip-path="url(#clipPath2890)"/><path d="m552.08 659.65-30.512 69.13 8.3861 3.7015 30.512-69.13zm16.772 7.4029c3.0664-6.9473-0.0797-15.065-7.027-18.131-6.9473-3.0664-15.065 0.0797-18.131 7.027-3.0664 6.9473 0.0797 15.065 7.027 18.131 6.9473 3.0664 15.065-0.0797 18.131-7.027zm-53.82 53.832 1.4748 30.711 23.684-19.606z" clip-path="url(#clipPath2882)"/><path d="m1062.8 550.83 28.27 72.128-8.53 3.345-28.28-72.127zm-17.07 6.691c-2.77-7.07 0.71-15.048 7.78-17.82 7.07-2.771 15.05 0.714 17.82 7.784s-0.71 15.048-7.78 17.82c-7.07 2.771-15.05-0.714-17.82-7.784zm52.2 57.824-2.76 30.621-22.84-20.585z" clip-path="url(#clipPath2874)"/><path d="m1061.8 720.83 28.27 72.127-8.53 3.346-28.28-72.127zm-17.07 6.691c-2.77-7.07 0.71-15.048 7.78-17.82 7.07-2.771 15.05 0.714 17.82 7.784s-0.71 15.048-7.78 17.819c-7.07 2.772-15.05-0.713-17.82-7.783zm52.2 57.824-2.76 30.621-22.84-20.585z" clip-path="url(#clipPath2866)"/></g><text x="1008.73" y="1180" fill="#000000" font-family="'Cambria Math', 'Cambria Math_MSFontService', sans-serif" font-size="46px" font-weight="400" style="text-decoration-line:none">𝑄</text><path d="m1028 1145.1c-0.7188 0-1.3178-0.2508-1.7969-0.7524-0.4792-0.5016-0.7188-1.1343-0.7188-1.898 0-0.7636 0.2396-1.3963 0.7188-1.8979 0.4791-0.5016 1.0781-0.7525 1.7969-0.7525 0.7037 0 1.2952 0.2509 1.7744 0.7525 0.4791 0.5016 0.7187 1.1343 0.7187 1.8979 0 0.7637-0.2396 1.3964-0.7187 1.898-0.4792 0.5016-1.0707 0.7524-1.7744 0.7524z" clip-path="url(#clipPath2858)" fill="#836967"/><g fill="#000000"><text x="-2308.9844" y="-163.605" fill-opacity="0" font-family="Arial, Arial_MSFontService, sans-serif" font-size="5.3008px">ሶ</text><g font-family="'Cambria Math', 'Cambria Math_MSFontService', sans-serif" font-weight="400"><text x="1039.67" y="1194" font-size="34px" style="text-decoration-line:none">𝑀</text><text x="1067.1" y="1204" font-size="28px" style="text-decoration-line:none">𝑑</text><text x="1069.71" y="1179" font-size="28px" style="text-decoration-line:none">0</text><text x="1087.72" y="1194" font-size="34px" style="text-decoration-line:none">𝑑</text><text x="1124.62" y="1180" font-size="46px" style="text-decoration-line:none">=</text></g></g><path d="m1739.3 1108c6.16 5.27 11.04 13.13 14.66 23.58 3.61 10.46 5.42 22.12 5.42 35 0 12.68-1.81 24.33-5.42 34.94-3.62 10.6-8.5 18.53-14.66 23.77l-1.05-1.66c5.31-5.41 9.41-13.23 12.28-23.47 2.88-10.25 4.31-21.43 4.31-33.56 0-12.41-1.44-23.65-4.33-33.71-2.89-10.07-6.98-17.8-12.26-23.21zm-543.67 0 1.05 1.68c-5.3 5.41-9.39 13.14-12.27 23.21-2.88 10.06-4.32 21.3-4.32 33.71 0 12.13 1.43 23.31 4.31 33.56 2.87 10.24 6.97 18.06 12.28 23.47l-1.05 1.66c-6.16-5.24-11.04-13.17-14.66-23.77-3.61-10.61-5.42-22.26-5.42-34.94 0-12.88 1.81-24.54 5.42-35 3.62-10.45 8.5-18.31 14.66-23.58z" clip-path="url(#clipPath2850)" fill="#836967" fill-rule="evenodd"/><g fill="#000000" font-family="'Cambria Math', 'Cambria Math_MSFontService', sans-serif" font-weight="400"><text x="1198.02" y="1180" font-size="46px" style="text-decoration-line:none">𝛼</text><text x="1225.52" y="1189" font-size="34px" style="text-decoration-line:none">𝐿</text><text x="1243.85" y="1189" font-size="34px" style="text-decoration-line:none">𝑑</text><text x="1268.01" y="1180" font-size="46px" style="text-decoration-line:none">𝜌</text><text x="1292.35" y="1189" font-size="34px" style="text-decoration-line:none">𝐿𝑔</text><text x="1335.5" y="1180" font-size="46px" style="text-decoration-line:none">𝜀</text><text x="1355.3199" y="1189" font-size="34px" style="text-decoration-line:none">𝐿</text><text x="1373.65" y="1189" font-size="34px" style="text-decoration-line:none">𝑑</text><g font-size="46px"><text x="1499.95" y="1145" style="text-decoration-line:none">1</text><text x="1405.4399" y="1210" style="text-decoration-line:none">1</text><text x="1440.8199" y="1210" style="text-decoration-line:none">−</text><text x="1485.37" y="1210" style="text-decoration-line:none">𝜌</text></g><text x="1509.71" y="1220" font-size="34px" style="text-decoration-line:none">𝐿</text><text x="1528.04" y="1220" font-size="34px" style="text-decoration-line:none">𝑑</text><text x="1552.2" y="1210" font-size="46px" style="text-decoration-line:none">𝜌</text><text x="1576.54" y="1220" font-size="34px" style="text-decoration-line:none">𝐿𝑔</text></g><path d="m1405.3 1164.7h214v3h-214z" clip-path="url(#clipPath2842)" fill="#836967" fill-rule="evenodd"/><g fill="#000000" font-family="'Cambria Math', 'Cambria Math_MSFontService', sans-serif" font-weight="400"><text x="1629.86" y="1180" font-size="46px" style="text-decoration-line:none">−</text><text x="1674.41" y="1180" font-size="46px" style="text-decoration-line:none">𝜀</text><text x="1694.24" y="1189" font-size="34px" style="text-decoration-line:none">𝐿</text><text x="1712.5699" y="1189" font-size="34px" style="text-decoration-line:none">𝑑</text><text x="1770.64" y="1180" font-size="46px" style="text-decoration-line:none">𝑀</text><text x="1806.92" y="1191" font-size="34px" style="text-decoration-line:none">𝑑</text><text x="1810.72" y="1161" font-size="34px" style="text-decoration-line:none">0</text><text x="1205.79" y="388" font-size="46px" style="text-decoration-line:none">𝛼</text><text x="1233.29" y="397" font-size="34px" style="text-decoration-line:none">𝐿𝑑</text><text x="1275.78" y="388" font-size="46px" style="text-decoration-line:none">𝜌</text><text x="1300.11" y="397" font-size="34px" style="text-decoration-line:none">𝐿𝑔</text><text x="1343.27" y="388" font-size="46px" style="text-decoration-line:none">𝜀</text><text x="1363.09" y="397" font-size="34px" style="text-decoration-line:none">𝐿</text><text x="1381.42" y="397" font-size="34px" style="text-decoration-line:none">𝑑</text><text x="1405.58" y="388" font-size="46px" style="text-decoration-line:none">𝑀</text><text x="1441.85" y="399" font-size="34px" style="text-decoration-line:none">𝑑</text><text x="1445.66" y="369" font-size="34px" style="text-decoration-line:none">0</text></g><text x="1217.66" y="201" fill="#836967" font-family="'Cambria Math', 'Cambria Math_MSFontService', sans-serif" font-size="46px" font-weight="400" style="text-decoration-line:none">−</text><g fill="#000000" font-family="'Cambria Math', 'Cambria Math_MSFontService', sans-serif" font-weight="400"><text x="1252.03" y="201" font-size="46px" style="text-decoration-line:none">𝜀</text><text x="1271.85" y="211" font-size="34px" style="text-decoration-line:none">𝐿</text><text x="1290.1899" y="211" font-size="34px" style="text-decoration-line:none">𝑑</text><text x="1314.34" y="201" font-size="46px" style="text-decoration-line:none">𝑀</text><text x="1350.62" y="212" font-size="34px" style="text-decoration-line:none">𝑑</text><text x="1354.42" y="183" font-size="34px" style="text-decoration-line:none">0</text></g><rect x="436" y="84" width="148" height="649" clip-path="url(#clipPath2834)" fill="#4472c4" fill-opacity=".2"/><rect x="1044" y="90" width="145" height="649" clip-path="url(#clipPath2826)" fill="#afabab" fill-opacity=".2"/></svg>
