<?xml version="1.0" encoding="UTF-8"?>
<svg width="1888" height="1265" overflow="hidden" version="1.1" xml:space="preserve" xmlns="http://www.w3.org/2000/svg"><defs><clipPath id="clipPath9725"><rect width="1888" height="1265"/></clipPath><clipPath id="clipPath9733"><rect width="1888" height="1265"/></clipPath><clipPath id="clipPath9741"><rect width="1888" height="1265"/></clipPath><clipPath id="clipPath9749"><rect width="1888" height="1265"/></clipPath><clipPath id="clipPath9757"><rect width="1888" height="1265"/></clipPath><clipPath id="clipPath9765"><rect width="1888" height="1265"/></clipPath><clipPath id="clipPath9773"><rect width="1888" height="1265"/></clipPath><clipPath id="clipPath9781"><rect width="1888" height="1265"/></clipPath><clipPath id="clipPath9789"><rect width="1888" height="1265"/></clipPath><clipPath id="clipPath9797"><rect width="1888" height="1265"/></clipPath><clipPath id="clipPath9805"><rect width="1888" height="1265"/></clipPath><clipPath id="clipPath9813"><rect width="1888" height="1265"/></clipPath><clipPath id="clipPath9821"><rect width="1888" height="1265"/></clipPath><clipPath id="clipPath9829"><rect width="1888" height="1265"/></clipPath><clipPath id="clipPath9837"><rect width="1888" height="1265"/></clipPath><clipPath id="clipPath9845"><rect width="1888" height="1265"/></clipPath><clipPath id="clipPath9853"><rect width="1888" height="1265"/></clipPath><clipPath id="clipPath9861"><rect width="1888" height="1265"/></clipPath><clipPath id="clipPath9869"><rect width="1888" height="1265"/></clipPath><clipPath id="clipPath9877"><rect width="1888" height="1265"/></clipPath><clipPath id="clipPath9885"><rect width="1888" height="1265"/></clipPath><clipPath id="clipPath9893"><rect width="1888" height="1265"/></clipPath><clipPath id="clipPath9901"><rect width="1888" height="1265"/></clipPath><clipPath id="clipPath9909"><rect width="1888" height="1265"/></clipPath><clipPath id="clipPath9917"><rect width="1888" height="1265"/></clipPath><clipPath id="clipPath9925"><rect width="1888" height="1265"/></clipPath><clipPath id="clipPath9933"><rect width="1888" height="1265"/></clipPath><clipPath id="clipPath9941"><rect width="1888" height="1265"/></clipPath><clipPath id="clipPath9949"><rect width="1888" height="1265"/></clipPath><clipPath id="clipPath9957"><rect width="1888" height="1265"/></clipPath><clipPath id="clipPath9965"><rect width="1888" height="1265"/></clipPath><clipPath id="clipPath9973"><rect width="1888" height="1265"/></clipPath><clipPath id="clipPath9981"><rect width="1888" height="1265"/></clipPath><clipPath id="clipPath9989"><rect width="1888" height="1265"/></clipPath><clipPath id="clipPath9997"><rect width="1888" height="1265"/></clipPath></defs><text x="1202.66" y="925" fill="#000000" font-family="'Cambria Math', 'Cambria Math_MSFontService', sans-serif" font-size="46px" font-weight="400" style="text-decoration-line:none">π‘„</text><path d="m1221.9 890.06c-0.7188 0-1.3178-0.2508-1.7969-0.7524-0.4792-0.5016-0.7188-1.1343-0.7188-1.898 0-0.7636 0.2396-1.3963 0.7188-1.8979 0.4791-0.5016 1.0781-0.7525 1.7969-0.7525 0.7037 0 1.2952 0.2509 1.7744 0.7525 0.4791 0.5016 0.7187 1.1343 0.7187 1.8979 0 0.7637-0.2396 1.3964-0.7187 1.898-0.4792 0.5016-1.0707 0.7524-1.7744 0.7524z" clip-path="url(#clipPath9997)"/><g fill="#000000"><text x="-2153.9844" y="-81.604996" fill-opacity="0" font-family="Arial, Arial_MSFontService, sans-serif" font-size="5.3008px">α¶</text><g font-family="'Cambria Math', 'Cambria Math_MSFontService', sans-serif" font-weight="400"><text x="1232.16" y="934" font-size="34px" style="text-decoration-line:none">πΈ</text><text x="1253.35" y="934" font-size="34px" style="text-decoration-line:none">π‘‘</text><text x="1290.25" y="925" font-size="46px" style="text-decoration-line:none">=</text></g></g><path d="m1769.9 843.64c6.77 6.633 12.05 15.73 15.84 27.29 3.8 11.56 5.7 25.088 5.7 40.587 0 15.617-1.9 29.206-5.7 40.768-3.79 11.56-9.07 20.65-15.84 27.29l-1.44-1.6c6.07-6.78 10.65-15.89 13.75-27.33 3.1-11.442 4.65-24.469 4.65-39.084 0-14.539-1.55-27.533-4.65-38.98-3.1-11.448-7.68-20.563-13.75-27.347zm-407.36 0 1.44 1.594c-6.07 6.784-10.65 15.899-13.75 27.347-3.1 11.447-4.65 24.441-4.65 38.98 0 14.615 1.55 27.642 4.65 39.084 3.1 11.44 7.68 20.55 13.75 27.33l-1.44 1.6c-6.77-6.64-12.05-15.73-15.85-27.29-3.79-11.562-5.69-25.151-5.69-40.768 0-15.499 1.9-29.027 5.69-40.587 3.8-11.56 9.08-20.657 15.85-27.29z" clip-path="url(#clipPath9989)" fill-rule="evenodd"/><g fill="#000000" font-family="'Cambria Math', 'Cambria Math_MSFontService', sans-serif" font-weight="400"><text x="1365.3" y="925" font-size="46px" style="text-decoration-line:none">π›Ό</text><text x="1391.49" y="934" font-size="34px" style="text-decoration-line:none">π‘†</text><text x="1409.83" y="934" font-size="34px" style="text-decoration-line:none">π‘‘</text><text x="1433.98" y="925" font-size="46px" style="text-decoration-line:none">π</text><text x="1453.87" y="934" font-size="34px" style="text-decoration-line:none">π‘†π‘”</text></g><path d="m1517 870.89 26.796 36.387v2.7178l-28.93 39.262h38.97c1.722 0 3.0397-0.6064 3.9531-1.8193s1.6996-3.9232 2.3584-8.1309h3.3242l-1.1455 16.464h-55.231v-2.2237l31.468-42.653-30.547-40.812v-2.1338h54.243v13.297h-2.9648c-0.3444-3.1895-1.0407-5.7126-2.0889-7.5693-1.0481-1.8568-2.6354-2.7852-4.7617-2.7852z" clip-path="url(#clipPath9981)"/><text x="-2144.416" y="-35.206299" fill="#000000" fill-opacity="0" font-family="Arial, Arial_MSFontService, sans-serif" font-size="87.822px">ΰ·</text><path d="m1725.5 883.82c4.68 1.228 8.28 4.41 10.81 9.546s3.79 11.216 3.79 18.238c0 7.023-1.26 13.103-3.79 18.239s-6.13 8.318-10.81 9.546l-0.56-1.842c3.63-1.363 6.37-4.331 8.23-8.906 1.87-4.575 2.8-10.246 2.8-17.014 0-6.783-0.93-12.466-2.8-17.048-1.86-4.582-4.6-7.554-8.23-8.917zm-137.58 0 0.56 1.842c-3.62 1.363-6.37 4.335-8.23 8.917-1.87 4.582-2.8 10.265-2.8 17.048 0 6.768 0.93 12.439 2.8 17.014 1.86 4.575 4.61 7.543 8.23 8.906l-0.56 1.842c-4.67-1.228-8.27-4.41-10.81-9.546-2.53-5.136-3.79-11.216-3.79-18.239 0-7.022 1.26-13.102 3.79-18.238 2.54-5.136 6.14-8.318 10.81-9.546z" clip-path="url(#clipPath9973)" fill-rule="evenodd"/><g fill="#000000" font-family="'Cambria Math', 'Cambria Math_MSFontService', sans-serif" font-weight="400"><text x="1589.8199" y="925" font-size="46px" style="text-decoration-line:none">π</text><text x="1613.8101" y="934" font-size="34px" style="text-decoration-line:none">π‘†π‘”</text><text x="1656.96" y="925" font-size="46px" style="text-decoration-line:none">π</text><g font-size="34px"><text x="1680.96" y="934" style="text-decoration-line:none">π‘†</text><text x="1699.29" y="934" style="text-decoration-line:none">π‘‘</text><text x="1744.02" y="894" style="text-decoration-line:none">π‘</text><text x="1521.46" y="857" style="text-decoration-line:none">β</text><text x="1504.66" y="983" style="text-decoration-line:none">π‘</text><text x="1525.6899" y="983" style="text-decoration-line:none">=</text><text x="1549.76" y="983" style="text-decoration-line:none">0</text></g><text x="1802.53" y="925" font-size="46px" style="text-decoration-line:none">πΈ</text></g><path d="m428 91v649.61" clip-path="url(#clipPath9965)" fill="none" fill-rule="evenodd" stroke="#4472c4" stroke-miterlimit="8" stroke-width="2.2917"/><path d="m584 91v649.61" clip-path="url(#clipPath9957)" fill="none" fill-rule="evenodd" stroke="#4472c4" stroke-miterlimit="8" stroke-width="2.2917"/><path d="m156.89 130.93 854.74 73.674-0.79 9.133-854.73-73.675zm850.96 64.148 26.22 16.061-28.58 11.337z" clip-path="url(#clipPath9949)" fill="#ed7d31"/><text x="162.12" y="109" fill="#000000" font-family="'Cambria Math', 'Cambria Math_MSFontService', sans-serif" font-size="46px" font-weight="400" style="text-decoration-line:none">πΈ</text><path d="m1034 91v649.61" clip-path="url(#clipPath9941)" fill="none" fill-rule="evenodd" stroke="#4472c4" stroke-miterlimit="8" stroke-width="2.2917"/><path d="m1190 91v649.61" clip-path="url(#clipPath9933)" fill="none" fill-rule="evenodd" stroke="#4472c4" stroke-miterlimit="8" stroke-width="2.2917"/><g fill="#000000" font-family="'Cambria Math', 'Cambria Math_MSFontService', sans-serif" font-weight="400"><text x="896.57001" y="169" font-size="46px" style="text-decoration-line:none">π</text><text x="916.46997" y="179" font-size="34px" style="text-decoration-line:none">π‘†π‘”</text><text x="959.62" y="169" font-size="46px" style="text-decoration-line:none">πΈ</text></g><path d="m447.3 161.94 50.18 74.459-7.6 5.122-50.18-74.458zm-15.2 10.245c-4.25-6.297-2.58-14.843 3.72-19.086 6.29-4.244 14.84-2.579 19.08 3.718 4.25 6.298 2.58 14.843-3.72 19.087-6.29 4.243-14.84 2.579-19.08-3.719zm70.42 55.29 3.96 30.489-26.77-15.121z" clip-path="url(#clipPath9925)" fill="#ed7d31"/><g fill="#000000" font-family="'Cambria Math', 'Cambria Math_MSFontService', sans-serif" font-weight="400"><text x="328.04001" y="225" font-size="46px" style="text-decoration-line:none">π›Ό</text><text x="354.23999" y="234" font-size="34px" style="text-decoration-line:none">π‘†π‘”</text><text x="397.39001" y="225" font-size="46px" style="text-decoration-line:none">πΈ</text></g><path d="m1042.2 217.82 53.79 74.853-7.45 5.349-53.78-74.853zm-14.89 10.698c-4.43-6.167-3.02-14.758 3.15-19.189 6.16-4.432 14.76-3.025 19.19 3.142s3.02 14.759-3.15 19.19c-6.16 4.431-14.76 3.024-19.19-3.143zm73.45 55.084 4.88 30.356-27.22-14.309z" clip-path="url(#clipPath9917)" fill="#ed7d31"/><g fill="#000000" font-weight="400"><g font-family="'Cambria Math', 'Cambria Math_MSFontService', sans-serif"><text x="1198.13" y="312" font-size="46px" style="text-decoration-line:none">π›Ό</text><text x="1224.3199" y="322" font-size="34px" style="text-decoration-line:none">π‘†π‘‘</text><text x="1266.8101" y="312" font-size="46px" style="text-decoration-line:none">π</text><text x="1286.7" y="322" font-size="34px" style="text-decoration-line:none">π‘†π‘”</text><text x="1329.85" y="312" font-size="46px" style="text-decoration-line:none">πΈ</text></g><text x="1078.9" y="62" font-family="Calibri, Calibri_MSFontService, sans-serif" font-size="46px" style="text-decoration-line:none">disc</text></g><path d="m1024.6 216.02-419.65 91.361 1.95 8.9568 419.65-91.361zm-417.12 81.429-23.946 19.285 29.796 7.5857z" clip-path="url(#clipPath9909)" fill="#ed7d31"/><g fill="#000000" font-family="'Cambria Math', 'Cambria Math_MSFontService', sans-serif" font-weight="400"><text x="591.19" y="265" font-size="46px" style="text-decoration-line:none">π</text><text x="615.17999" y="275" font-size="34px" style="text-decoration-line:none">π‘†</text><text x="633.51001" y="275" font-size="34px" style="text-decoration-line:none">π‘‘</text><text x="657.66998" y="265" font-size="46px" style="text-decoration-line:none">π</text><text x="677.56" y="275" font-size="34px" style="text-decoration-line:none">π‘†π‘”</text><text x="720.71002" y="265" font-size="46px" style="text-decoration-line:none">πΈ</text></g><path d="m572.87 323.69-55.933 71.998 7.2389 5.6236 55.933-71.998zm14.478 11.247c4.6588-5.9969 3.574-14.635-2.4229-19.294-5.9969-4.6588-14.635-3.574-19.294 2.4229-4.6588 5.9969-3.574 14.635 2.4229 19.294 5.9969 4.6588 14.635 3.574 19.294-2.4229zm-74.838 51.507-6.0126 30.152 27.729-13.281z" clip-path="url(#clipPath9901)" fill="#ed7d31"/><g fill="#000000" font-family="'Cambria Math', 'Cambria Math_MSFontService', sans-serif" font-weight="400"><text x="195.97" y="425" font-size="46px" style="text-decoration-line:none">π›Ό</text><text x="222.16" y="434" font-size="34px" style="text-decoration-line:none">π‘†π‘”</text><text x="265.31" y="425" font-size="46px" style="text-decoration-line:none">π</text><text x="289.31" y="434" font-size="34px" style="text-decoration-line:none">π‘†π‘‘</text><text x="331.79999" y="425" font-size="46px" style="text-decoration-line:none">π</text><text x="351.69" y="434" font-size="34px" style="text-decoration-line:none">π‘†π‘”</text><text x="394.84" y="425" font-size="46px" style="text-decoration-line:none">πΈ</text></g><path d="m585.99 321.94 430.43 46.691-0.99 9.113-430.42-46.69zm426.86 37.084 25.85 16.635-28.82 10.704z" clip-path="url(#clipPath9893)" fill="#ed7d31"/><path d="m1024.6 386.02-419.65 91.361 1.95 8.9568 419.65-91.361zm-417.12 81.429-23.946 19.285 29.796 7.5857z" clip-path="url(#clipPath9885)" fill="#ed7d31"/><g fill="#000000" font-family="'Cambria Math', 'Cambria Math_MSFontService', sans-serif" font-weight="400"><text x="597.83002" y="421" font-size="46px" style="text-decoration-line:none">π</text><text x="621.82001" y="430" font-size="34px" style="text-decoration-line:none">π‘†π‘”</text><text x="664.96997" y="421" font-size="46px" style="text-decoration-line:none">π</text><g font-size="34px"><text x="688.96997" y="432" style="text-decoration-line:none">π‘†</text><text x="707.29999" y="432" style="text-decoration-line:none">π‘‘</text><text x="691.76001" y="403" style="text-decoration-line:none">2</text></g><text x="731.45001" y="421" font-size="46px" style="text-decoration-line:none">π</text><text x="751.34998" y="430" font-size="34px" style="text-decoration-line:none">π‘†π‘”</text><text x="794.5" y="421" font-size="46px" style="text-decoration-line:none">πΈ</text></g><path d="m572.91 483.64-55.677 69.604 7.1583 5.726 55.677-69.604zm14.317 11.452c4.7436-5.9301 3.7817-14.583-2.1484-19.326-5.9301-4.7436-14.583-3.7817-19.326 2.1484-4.7436 5.9301-3.7817 14.583 2.1484 19.326 5.9301 4.7436 14.583 3.7817 19.326-2.1484zm-74.289 48.847-6.4405 30.064 27.915-12.886z" clip-path="url(#clipPath9877)" fill="#ed7d31"/><g fill="#000000" font-family="'Cambria Math', 'Cambria Math_MSFontService', sans-serif" font-weight="400"><text x="127.73" y="579" font-size="46px" style="text-decoration-line:none">π›Ό</text><text x="153.92" y="588" font-size="34px" style="text-decoration-line:none">π‘†π‘”</text><text x="197.08" y="579" font-size="46px" style="text-decoration-line:none">π</text><text x="221.07001" y="588" font-size="34px" style="text-decoration-line:none">π‘†π‘”</text><text x="264.22" y="579" font-size="46px" style="text-decoration-line:none">π</text><text x="288.22" y="589" font-size="34px" style="text-decoration-line:none">π‘†π‘‘</text><text x="291.01001" y="560" font-size="34px" style="text-decoration-line:none">2</text><text x="330.70001" y="579" font-size="46px" style="text-decoration-line:none">π</text><text x="350.59" y="588" font-size="34px" style="text-decoration-line:none">π‘†π‘”</text><text x="393.75" y="579" font-size="46px" style="text-decoration-line:none">πΈ</text></g><path d="m585.99 495.94 430.43 46.691-0.99 9.113-430.42-46.69zm426.86 37.084 25.85 16.635-28.82 10.704z" clip-path="url(#clipPath9869)" fill="#ed7d31"/><path d="m1042.2 378.79 53.6 73.066-7.39 5.422-53.61-73.066zm-14.79 10.844c-4.49-6.123-3.17-14.728 2.96-19.22 6.12-4.491 14.72-3.169 19.22 2.954 4.49 6.123 3.17 14.728-2.96 19.22-6.12 4.492-14.72 3.169-19.22-2.954zm73.07 53.105 5.18 30.306-27.36-14.04z" clip-path="url(#clipPath9861)" fill="#ed7d31"/><g fill="#000000" font-family="'Cambria Math', 'Cambria Math_MSFontService', sans-serif" font-weight="400"><text x="1198.63" y="457" font-size="46px" style="text-decoration-line:none">π›Ό</text><text x="1224.8199" y="467" font-size="34px" style="text-decoration-line:none">π‘†π‘‘</text><text x="1267.3101" y="457" font-size="46px" style="text-decoration-line:none">π</text><text x="1291.3" y="467" font-size="34px" style="text-decoration-line:none">π‘†π‘”</text><text x="1334.46" y="457" font-size="46px" style="text-decoration-line:none">π</text><text x="1358.45" y="467" font-size="34px" style="text-decoration-line:none">π‘†</text><text x="1376.78" y="467" font-size="34px" style="text-decoration-line:none">π‘‘</text><text x="1400.9399" y="457" font-size="46px" style="text-decoration-line:none">π</text><text x="1420.83" y="467" font-size="34px" style="text-decoration-line:none">π‘†π‘”</text><text x="1463.98" y="457" font-size="46px" style="text-decoration-line:none">πΈ</text><text x="800.14001" y="506" font-size="46px" style="text-decoration-line:none">π</text><text x="824.13" y="516" font-size="34px" style="text-decoration-line:none">π‘†π‘”</text><text x="826.92999" y="488" font-size="34px" style="text-decoration-line:none">2</text><text x="867.28003" y="506" font-size="46px" style="text-decoration-line:none">π</text><text x="891.28003" y="516" font-size="34px" style="text-decoration-line:none">π‘†π‘‘</text><text x="894.07001" y="487" font-size="34px" style="text-decoration-line:none">2</text><text x="933.77002" y="506" font-size="46px" style="text-decoration-line:none">π</text><text x="953.65997" y="515" font-size="34px" style="text-decoration-line:none">π‘†π‘”</text><text x="996.81" y="506" font-size="46px" style="text-decoration-line:none">πΈ</text></g><path d="m1042.1 555.65 52.91 66.66-7.18 5.699-52.91-66.66zm-14.36 11.397c-4.72-5.948-3.73-14.597 2.22-19.318s14.6-3.726 19.32 2.222 3.73 14.597-2.22 19.318-14.6 3.726-19.32-2.222zm71.6 45.974 6.33 30.088-27.87-12.991z" clip-path="url(#clipPath9853)" fill="#ed7d31"/><g fill="#000000" font-family="'Cambria Math', 'Cambria Math_MSFontService', sans-serif" font-weight="400"><text x="1198.63" y="617" font-size="46px" style="text-decoration-line:none">π›Ό</text><text x="1224.8199" y="627" font-size="34px" style="text-decoration-line:none">π‘†π‘‘</text><text x="1267.3101" y="617" font-size="46px" style="text-decoration-line:none">π</text><text x="1291.3" y="628" font-size="34px" style="text-decoration-line:none">π‘†π‘”</text><text x="1294.1" y="600" font-size="34px" style="text-decoration-line:none">2</text><text x="1334.46" y="617" font-size="46px" style="text-decoration-line:none">π</text><text x="1358.45" y="628" font-size="34px" style="text-decoration-line:none">π‘†π‘‘</text><text x="1361.25" y="599" font-size="34px" style="text-decoration-line:none">2</text><text x="1400.9399" y="617" font-size="46px" style="text-decoration-line:none">π</text><text x="1420.83" y="627" font-size="34px" style="text-decoration-line:none">π‘†π‘”</text><text x="1463.98" y="617" font-size="46px" style="text-decoration-line:none">πΈ</text></g><path d="m1017.6 554.02-419.65 91.361 1.95 8.9568 419.65-91.361zm-417.12 81.429-23.946 19.285 29.796 7.5857z" clip-path="url(#clipPath9845)" fill="#ed7d31"/><g fill="#000000" font-family="'Cambria Math', 'Cambria Math_MSFontService', sans-serif" font-weight="400"><text x="591.09003" y="597" font-size="46px" style="text-decoration-line:none">π</text><text x="615.08002" y="607" font-size="34px" style="text-decoration-line:none">π‘†π‘”</text><text x="617.88" y="579" font-size="34px" style="text-decoration-line:none">2</text><text x="658.22998" y="597" font-size="46px" style="text-decoration-line:none">π</text><g font-size="34px"><text x="682.22998" y="608" style="text-decoration-line:none">π‘†</text><text x="700.56" y="608" style="text-decoration-line:none">π‘‘</text><text x="685.02002" y="578" style="text-decoration-line:none">3</text></g><text x="724.71002" y="597" font-size="46px" style="text-decoration-line:none">π</text><text x="744.60999" y="606" font-size="34px" style="text-decoration-line:none">π‘†π‘”</text><text x="787.76001" y="597" font-size="46px" style="text-decoration-line:none">πΈ</text></g><path d="m585.99 668.94 430.43 46.691-0.99 9.113-430.42-46.691zm426.86 37.084 25.85 16.635-28.82 10.704z" clip-path="url(#clipPath9837)" fill="#ed7d31"/><g fill="#000000" font-family="'Cambria Math', 'Cambria Math_MSFontService', sans-serif" font-weight="400"><text x="801.59998" y="684" font-size="46px" style="text-decoration-line:none">π</text><text x="825.59998" y="694" font-size="34px" style="text-decoration-line:none">π‘†π‘”</text><text x="828.39001" y="666" font-size="34px" style="text-decoration-line:none">3</text><text x="868.75" y="684" font-size="46px" style="text-decoration-line:none">π</text><g font-size="34px"><text x="892.73999" y="695" style="text-decoration-line:none">π‘†</text><text x="911.08002" y="695" style="text-decoration-line:none">π‘‘</text><text x="895.53998" y="665" style="text-decoration-line:none">3</text></g><text x="935.22998" y="684" font-size="46px" style="text-decoration-line:none">π</text><text x="955.12" y="693" font-size="34px" style="text-decoration-line:none">π‘†π‘”</text><text x="998.27002" y="684" font-size="46px" style="text-decoration-line:none">πΈ</text></g><g fill="#ed7d31"><path d="m1025.8 726.99-27.036 5.0294 1.6765 9.0121 27.036-5.0294zm-36.048 6.7059-27.036 5.0294 1.6764 9.012 27.036-5.0294zm-36.048 6.7059-27.036 5.0295 1.6765 9.012 27.036-5.0294zm-36.048 6.706-17.429 3.2422 1.677 9.0121 17.429-3.2423zm-14.599-6.6081-24.522 18.547 29.551 8.4887z" clip-path="url(#clipPath9829)"/><path d="m572.82 651.75-56.255 75.12 7.3373 5.4947 56.255-75.12zm14.675 10.989c4.5519-6.0784 3.3145-14.696-2.764-19.248-6.0784-4.5519-14.696-3.3145-19.248 2.764-4.5519 6.0784-3.3145 14.696 2.764 19.248 6.0784 4.5519 14.696 3.3145 19.248-2.764zm-75.52 54.967-5.4781 30.254 27.49-13.77z" clip-path="url(#clipPath9821)"/><path d="m1042.2 719.83 53.79 74.852-7.45 5.349-53.78-74.852zm-14.89 10.697c-4.43-6.166-3.02-14.758 3.15-19.189 6.16-4.431 14.76-3.024 19.19 3.143s3.02 14.758-3.15 19.189c-6.16 4.432-14.76 3.024-19.19-3.143zm73.45 55.084 4.88 30.356-27.22-14.309z" clip-path="url(#clipPath9813)"/></g><g fill="#000000" font-family="'Cambria Math', 'Cambria Math_MSFontService', sans-serif" font-weight="400"><text x="123.26" y="745" font-size="46px" style="text-decoration-line:none">π›Ό</text><text x="149.46001" y="754" font-size="34px" style="text-decoration-line:none">π‘†π‘”</text><text x="192.61" y="745" font-size="46px" style="text-decoration-line:none">π</text><text x="216.60001" y="755" font-size="34px" style="text-decoration-line:none">π‘†π‘”</text><text x="219.39999" y="727" font-size="34px" style="text-decoration-line:none">2</text><text x="259.75" y="745" font-size="46px" style="text-decoration-line:none">π</text><g font-size="34px"><text x="283.75" y="756" style="text-decoration-line:none">π‘†</text><text x="302.07999" y="756" style="text-decoration-line:none">π‘‘</text><text x="286.54001" y="727" style="text-decoration-line:none">3</text></g><text x="326.23999" y="745" font-size="46px" style="text-decoration-line:none">π</text><text x="346.13" y="754" font-size="34px" style="text-decoration-line:none">π‘†π‘”</text><text x="389.28" y="745" font-size="46px" style="text-decoration-line:none">πΈ</text><text x="51.619999" y="916" font-size="46px" style="text-decoration-line:none">π‘„</text></g><path d="m70.841 881.06c-0.71875 0-1.3177-0.2508-1.7969-0.7524-0.47917-0.5016-0.71875-1.1343-0.71875-1.898 0-0.7636 0.23958-1.3963 0.71875-1.8979 0.47916-0.5016 1.0781-0.7525 1.7969-0.7525 0.70378 0 1.2952 0.2509 1.7744 0.7525 0.47917 0.5016 0.71875 1.1343 0.71875 1.8979 0 0.7637-0.23958 1.3964-0.71875 1.898-0.47916 0.5016-1.0706 0.7524-1.7744 0.7524z" clip-path="url(#clipPath9805)"/><g fill="#000000"><text x="-2153.9844" y="-81.604996" fill-opacity="0" font-family="Arial, Arial_MSFontService, sans-serif" font-size="5.3008px">α¶</text><text x="81.110001" y="925" font-family="'Cambria Math', 'Cambria Math_MSFontService', sans-serif" font-size="34px" font-weight="400" style="text-decoration-line:none">πΈπ‘”</text><text x="139.87" y="916" font-family="'Cambria Math', 'Cambria Math_MSFontService', sans-serif" font-size="46px" font-weight="400" style="text-decoration-line:none">=</text></g><path d="m810.7 835.04c6.76 6.634 12.05 15.73 15.84 27.29 3.8 11.56 5.7 25.089 5.7 40.587 0 15.618-1.9 29.207-5.7 40.767-3.79 11.557-9.08 20.657-15.84 27.287l-1.44-1.59c6.06-6.79 10.64-15.9 13.74-27.337 3.1-11.44 4.65-24.467 4.65-39.082 0-14.54-1.55-27.533-4.65-38.981-3.1-11.447-7.68-20.563-13.74-27.346zm-598.58 0 1.44 1.595c-6.07 6.783-10.65 15.899-13.75 27.346-3.1 11.448-4.65 24.441-4.65 38.981 0 14.615 1.55 27.642 4.65 39.082 3.1 11.437 7.68 20.547 13.75 27.337l-1.44 1.59c-6.77-6.63-12.05-15.73-15.85-27.287-3.79-11.56-5.69-25.149-5.69-40.767 0-15.498 1.9-29.027 5.69-40.587 3.8-11.56 9.08-20.656 15.85-27.29z" clip-path="url(#clipPath9797)" fill-rule="evenodd"/><g fill="#000000" font-family="'Cambria Math', 'Cambria Math_MSFontService', sans-serif" font-weight="400"><text x="214.92" y="916" font-size="46px" style="text-decoration-line:none">π›Ό</text><text x="241.11" y="925" font-size="34px" style="text-decoration-line:none">π‘†π‘”</text><text x="294.44" y="916" font-size="46px" style="text-decoration-line:none">+</text><text x="338.98999" y="916" font-size="46px" style="text-decoration-line:none">π›Ό</text><text x="365.19" y="925" font-size="34px" style="text-decoration-line:none">π‘†π‘”</text><text x="408.34" y="916" font-size="46px" style="text-decoration-line:none">π</text><text x="432.32999" y="925" font-size="34px" style="text-decoration-line:none">π‘†</text><text x="450.67001" y="925" font-size="34px" style="text-decoration-line:none">π‘‘</text><text x="474.82001" y="916" font-size="46px" style="text-decoration-line:none">π</text><text x="494.70999" y="925" font-size="34px" style="text-decoration-line:none">π‘†π‘”</text></g><path d="m557.89 861.89 26.796 36.387v2.7178l-28.93 39.262h38.97c1.722 0 3.0397-0.6064 3.9531-1.8193s1.6996-3.9232 2.3584-8.1309h3.3242l-1.1455 16.464h-55.231v-2.2237l31.468-42.653-30.547-40.812v-2.1338h54.243v13.297h-2.9648c-0.3444-3.1895-1.0407-5.7126-2.0889-7.5693-1.0481-1.8568-2.6354-2.7852-4.7617-2.7852z" clip-path="url(#clipPath9789)"/><text x="-2144.416" y="-35.206299" fill="#000000" fill-opacity="0" font-family="Arial, Arial_MSFontService, sans-serif" font-size="87.822px">ΰ·</text><path d="m766.3 875.22c4.67 1.228 8.27 4.41 10.8 9.546 2.54 5.136 3.8 11.215 3.8 18.238s-1.26 13.102-3.8 18.238c-2.53 5.136-6.13 8.318-10.8 9.546l-0.56-1.842c3.62-1.362 6.37-4.331 8.23-8.905 1.87-4.575 2.8-10.246 2.8-17.014 0-6.784-0.93-12.466-2.8-17.048-1.86-4.582-4.61-7.555-8.23-8.917zm-137.58 0 0.56 1.842c-3.63 1.362-6.37 4.335-8.23 8.917-1.87 4.582-2.8 10.264-2.8 17.048 0 6.768 0.93 12.439 2.8 17.014 1.86 4.574 4.6 7.543 8.23 8.905l-0.56 1.842c-4.68-1.228-8.28-4.41-10.81-9.546s-3.79-11.215-3.79-18.238 1.26-13.102 3.79-18.238 6.13-8.318 10.81-9.546z" clip-path="url(#clipPath9781)" fill-rule="evenodd"/><g fill="#000000" font-family="'Cambria Math', 'Cambria Math_MSFontService', sans-serif" font-weight="400"><text x="630.65002" y="916" font-size="46px" style="text-decoration-line:none">π</text><text x="654.65002" y="925" font-size="34px" style="text-decoration-line:none">π‘†π‘”</text><text x="697.79999" y="916" font-size="46px" style="text-decoration-line:none">π</text><g font-size="34px"><text x="721.78998" y="925" style="text-decoration-line:none">π‘†</text><text x="740.13" y="925" style="text-decoration-line:none">π‘‘</text><text x="784.85999" y="886" style="text-decoration-line:none">π‘</text><text x="562.28998" y="848" style="text-decoration-line:none">β</text><text x="545.48999" y="975" style="text-decoration-line:none">π‘</text><text x="566.53003" y="975" style="text-decoration-line:none">=</text><text x="590.59003" y="975" style="text-decoration-line:none">0</text></g><text x="843.35999" y="916" font-size="46px" style="text-decoration-line:none">πΈ</text><text x="1190.8" y="1078" font-size="46px" style="text-decoration-line:none">π‘„</text></g><path d="m1210 1043.1c-0.7188 0-1.3178-0.2508-1.7969-0.7524-0.4792-0.5016-0.7188-1.1343-0.7188-1.898 0-0.7636 0.2396-1.3963 0.7188-1.8979 0.4791-0.5016 1.0781-0.7525 1.7969-0.7525 0.7037 0 1.2952 0.2509 1.7744 0.7525 0.4791 0.5016 0.7187 1.1343 0.7187 1.8979 0 0.7637-0.2396 1.3964-0.7187 1.898-0.4792 0.5016-1.0707 0.7524-1.7744 0.7524z" clip-path="url(#clipPath9773)"/><g fill="#000000"><text x="-2153.9844" y="-81.604996" fill-opacity="0" font-family="Arial, Arial_MSFontService, sans-serif" font-size="5.3008px">α¶</text><g font-family="'Cambria Math', 'Cambria Math_MSFontService', sans-serif" font-weight="400"><text x="1220.29" y="1087" font-size="34px" style="text-decoration-line:none">πΈ</text><text x="1241.49" y="1087" font-size="34px" style="text-decoration-line:none">π‘‘</text><text x="1278.39" y="1078" font-size="46px" style="text-decoration-line:none">=</text><text x="1325.5" y="1078" font-size="46px" style="text-decoration-line:none">π›Ό</text><text x="1351.7" y="1087" font-size="34px" style="text-decoration-line:none">π‘†</text><text x="1370.03" y="1087" font-size="34px" style="text-decoration-line:none">π‘‘</text><text x="1394.1899" y="1078" font-size="46px" style="text-decoration-line:none">π</text><text x="1414.08" y="1087" font-size="34px" style="text-decoration-line:none">π‘†π‘”</text><g font-size="46px"><text x="1559.02" y="1043" style="text-decoration-line:none">1</text><text x="1464.86" y="1108" style="text-decoration-line:none">1</text><text x="1500.24" y="1108" style="text-decoration-line:none">β’</text><text x="1544.79" y="1108" style="text-decoration-line:none">π</text></g><text x="1568.79" y="1118" font-size="34px" style="text-decoration-line:none">π‘†π‘”</text><text x="1611.9399" y="1108" font-size="46px" style="text-decoration-line:none">π</text><text x="1635.9301" y="1118" font-size="34px" style="text-decoration-line:none">π‘†</text><text x="1654.27" y="1118" font-size="34px" style="text-decoration-line:none">π‘‘</text></g></g><g><path d="m1465.2 1062.6h214v3h-214z" clip-path="url(#clipPath9765)" fill-rule="evenodd"/><text x="1686.05" y="1078" fill="#000000" font-family="'Cambria Math', 'Cambria Math_MSFontService', sans-serif" font-size="46px" font-weight="400" style="text-decoration-line:none">πΈ</text><text x="60.700001" y="1094" fill="#000000" font-family="'Cambria Math', 'Cambria Math_MSFontService', sans-serif" font-size="46px" font-weight="400" style="text-decoration-line:none">π‘„</text><path d="m79.921 1059.1c-0.71875 0-1.3177-0.2508-1.7969-0.7524-0.47917-0.5016-0.71875-1.1343-0.71875-1.898 0-0.7636 0.23958-1.3963 0.71875-1.8979 0.47916-0.5016 1.0781-0.7525 1.7969-0.7525 0.70378 0 1.2952 0.2509 1.7744 0.7525 0.47917 0.5016 0.71875 1.1343 0.71875 1.8979 0 0.7637-0.23958 1.3964-0.71875 1.898-0.47916 0.5016-1.0706 0.7524-1.7744 0.7524z" clip-path="url(#clipPath9757)" fill="#836967"/></g><g fill="#000000"><text x="-2153.9844" y="-81.604996" fill-opacity="0" font-family="Arial, Arial_MSFontService, sans-serif" font-size="5.3008px">α¶</text><g font-family="'Cambria Math', 'Cambria Math_MSFontService', sans-serif" font-weight="400"><text x="90.199997" y="1103" font-size="34px" style="text-decoration-line:none">πΈπ‘”</text><text x="148.96001" y="1094" font-size="46px" style="text-decoration-line:none">=</text><text x="196.07001" y="1094" font-size="46px" style="text-decoration-line:none">π›Ό</text><text x="222.27" y="1103" font-size="34px" style="text-decoration-line:none">π‘†π‘”</text></g></g><path d="m732.52 1022.2c6.16 5.27 11.04 13.14 14.66 23.59s5.42 22.11 5.42 34.99c0 12.68-1.8 24.33-5.42 34.94s-8.5 18.53-14.66 23.77l-1.05-1.66c5.31-5.4 9.41-13.23 12.28-23.47 2.88-10.24 4.32-21.43 4.32-33.56 0-12.41-1.45-23.65-4.34-33.71s-6.98-17.8-12.26-23.2zm-435.62 0 1.06 1.69c-5.3 5.4-9.39 13.14-12.28 23.2-2.88 10.06-4.32 21.3-4.32 33.71 0 12.13 1.44 23.32 4.31 33.56 2.88 10.24 6.97 18.07 12.29 23.47l-1.06 1.66c-6.15-5.24-11.04-13.16-14.65-23.77-3.62-10.61-5.43-22.26-5.43-34.94 0-12.88 1.81-24.54 5.43-34.99 3.61-10.45 8.5-18.32 14.65-23.59z" clip-path="url(#clipPath9749)" fill="#836967" fill-rule="evenodd"/><g fill="#000000" font-family="'Cambria Math', 'Cambria Math_MSFontService', sans-serif" font-weight="400"><g font-size="46px"><text x="299.34" y="1094" style="text-decoration-line:none">1</text><text x="334.72" y="1094" style="text-decoration-line:none">+</text><text x="379.26999" y="1094" style="text-decoration-line:none">π</text></g><text x="403.26001" y="1103" font-size="34px" style="text-decoration-line:none">π‘†</text><text x="421.60001" y="1103" font-size="34px" style="text-decoration-line:none">π‘‘</text><text x="445.75" y="1094" font-size="46px" style="text-decoration-line:none">π</text><text x="465.64001" y="1103" font-size="34px" style="text-decoration-line:none">π‘†π‘”</text><g font-size="46px"><text x="610.59003" y="1059" style="text-decoration-line:none">1</text><text x="516.42999" y="1125" style="text-decoration-line:none">1</text><text x="551.81" y="1125" style="text-decoration-line:none">β’</text><text x="596.35999" y="1125" style="text-decoration-line:none">π</text></g><text x="620.34998" y="1134" font-size="34px" style="text-decoration-line:none">π‘†π‘”</text><text x="663.5" y="1125" font-size="46px" style="text-decoration-line:none">π</text><text x="687.5" y="1134" font-size="34px" style="text-decoration-line:none">π‘†</text><text x="705.83002" y="1134" font-size="34px" style="text-decoration-line:none">π‘‘</text></g><path d="m516.39 1079h214v3h-214z" clip-path="url(#clipPath9741)" fill="#836967" fill-rule="evenodd"/><text x="763.90002" y="1094" fill="#000000" font-family="'Cambria Math', 'Cambria Math_MSFontService', sans-serif" font-size="46px" font-weight="400" style="text-decoration-line:none">πΈ</text><rect x="431" y="96" width="149" height="650" clip-path="url(#clipPath9733)" fill="#4472c4" fill-opacity=".2"/><rect x="1033" y="93" width="155" height="649" clip-path="url(#clipPath9725)" fill="#afabab" fill-opacity=".2"/><g fill="#000000" font-weight="400"><g font-family="'Cambria Math', 'Cambria Math_MSFontService', sans-serif"><text x="1201.84" y="786" font-size="46px" style="text-decoration-line:none">π›Ό</text><text x="1228.03" y="795" font-size="34px" style="text-decoration-line:none">π‘†π‘‘</text><text x="1270.52" y="786" font-size="46px" style="text-decoration-line:none">π</text><text x="1294.51" y="796" font-size="34px" style="text-decoration-line:none">π‘†π‘”</text><text x="1297.3101" y="768" font-size="34px" style="text-decoration-line:none">3</text><text x="1337.67" y="786" font-size="46px" style="text-decoration-line:none">π</text><text x="1361.66" y="796" font-size="34px" style="text-decoration-line:none">π‘†π‘‘</text><text x="1364.45" y="767" font-size="34px" style="text-decoration-line:none">3</text><text x="1404.15" y="786" font-size="46px" style="text-decoration-line:none">π</text><text x="1424.04" y="795" font-size="34px" style="text-decoration-line:none">π‘†π‘”</text><text x="1467.1899" y="786" font-size="46px" style="text-decoration-line:none">πΈ</text></g><text x="459.29999" y="65" font-family="Calibri, Calibri_MSFontService, sans-serif" font-size="46px" style="text-decoration-line:none">glass</text></g></svg>
